<svg xmlns="http://www.w3.org/2000/svg" xmlns:xlink="http://www.w3.org/1999/xlink" width="720" zoomAndPan="magnify" viewBox="0 0 540 540.000001" height="720" preserveAspectRatio="xMidYMid meet" version="1.0"><defs><clipPath id="cc512ca139"><path d="M 83.421875 0 L 456.230469 0 L 456.230469 539 L 83.421875 539 Z M 83.421875 0 " clip-rule="nonzero"/></clipPath></defs><path fill="#4b94d1" d="M 266.128906 480.371094 C 265.546875 480.371094 264.96875 480.371094 264.289062 480.273438 C 230.101562 477.753906 199.402344 461.484375 177.710938 434.660156 C 159.503906 411.902344 149.917969 383.914062 150.59375 355.734375 C 150.984375 342.078125 161.25 331.039062 176.066406 331.617188 C 189.71875 332.007812 200.566406 343.335938 200.179688 357.089844 C 199.792969 373.746094 205.410156 389.820312 216.351562 403.574219 C 229.328125 419.648438 247.632812 429.332031 267.96875 430.882812 C 281.625 431.851562 291.890625 443.761719 290.824219 457.417969 C 289.855469 470.492188 279.007812 480.371094 266.128906 480.371094 Z M 274.457031 0.609375 C 249.957031 62.300781 215.769531 112.074219 184.683594 157.300781 C 145.171875 214.921875 110.988281 264.699219 102.65625 326.003906 C 95.976562 375.78125 110.210938 426.71875 141.78125 465.84375 C 171.996094 503.226562 214.222656 525.789062 260.707031 529.46875 C 309.417969 533.34375 355.804688 517.074219 391.636719 483.953125 C 427.46875 450.640625 448.097656 403.476562 448.097656 354.378906 C 448.097656 279.613281 409.164062 222.863281 364.132812 157.300781 C 333.144531 112.074219 298.863281 62.203125 274.457031 0.609375 " fill-opacity="1" fill-rule="nonzero"/><g clip-path="url(#cc512ca139)"><path fill="#4b94d1" d="M 596.847656 -189.007812 L -97.324219 -189.007812 L -97.324219 -883.179688 C -97.324219 -896.832031 -108.460938 -907.96875 -122.113281 -907.96875 C -135.769531 -907.96875 -146.90625 -896.832031 -146.90625 -883.179688 L -146.90625 -189.007812 L -841.074219 -189.007812 C -854.730469 -189.007812 -865.867188 -177.871094 -865.867188 -164.214844 C -865.867188 -150.5625 -854.730469 -139.425781 -841.074219 -139.425781 L -146.90625 -139.425781 L -146.90625 554.746094 C -146.90625 568.398438 -135.769531 579.535156 -122.113281 579.535156 C -108.460938 579.535156 -97.324219 568.398438 -97.324219 554.746094 L -97.324219 -139.425781 L 596.847656 -139.425781 C 610.503906 -139.425781 621.640625 -150.5625 621.640625 -164.214844 C 621.640625 -177.871094 610.503906 -189.007812 596.847656 -189.007812 " fill-opacity="1" fill-rule="nonzero"/></g></svg>