<svg xmlns="http://www.w3.org/2000/svg" xmlns:xlink="http://www.w3.org/1999/xlink" width="720" zoomAndPan="magnify" viewBox="0 0 540 540.000001" height="720" preserveAspectRatio="xMidYMid meet" version="1.0"><defs><clipPath id="fc0388b76e"><path d="M 180 127.132812 L 365 127.132812 L 365 408 L 180 408 Z M 180 127.132812 " clip-rule="nonzero"/></clipPath><clipPath id="3a08e58ed6"><path d="M 171.4375 127.132812 L 368.324219 127.132812 L 368.324219 411.605469 L 171.4375 411.605469 Z M 171.4375 127.132812 " clip-rule="nonzero"/></clipPath></defs><g clip-path="url(#fc0388b76e)"><path fill="#4b94d1" d="M 267.953125 380.894531 C 267.644531 380.894531 267.339844 380.894531 266.980469 380.839844 C 248.921875 379.511719 232.703125 370.917969 221.246094 356.746094 C 211.625 344.722656 206.5625 329.9375 206.921875 315.050781 C 207.125 307.839844 212.546875 302.007812 220.375 302.3125 C 227.589844 302.515625 233.316406 308.503906 233.113281 315.765625 C 232.910156 324.566406 235.875 333.058594 241.65625 340.324219 C 248.511719 348.816406 258.179688 353.933594 268.925781 354.75 C 276.136719 355.261719 281.5625 361.554688 280.996094 368.769531 C 280.484375 375.675781 274.757812 380.894531 267.953125 380.894531 Z M 272.351562 127.453125 C 259.410156 160.039062 241.351562 186.335938 224.929688 210.226562 C 204.054688 240.667969 185.996094 266.960938 181.597656 299.34375 C 178.066406 325.640625 185.585938 352.550781 202.265625 373.21875 C 218.226562 392.964844 240.53125 404.886719 265.085938 406.832031 C 290.820312 408.875 315.324219 400.28125 334.253906 382.785156 C 353.183594 365.1875 364.078125 340.273438 364.078125 314.335938 C 364.078125 274.839844 343.515625 244.863281 319.726562 210.226562 C 303.355469 186.335938 285.242188 159.988281 272.351562 127.453125 " fill-opacity="1" fill-rule="nonzero"/></g><g clip-path="url(#3a08e58ed6)"><path fill="#4b94d1" d="M 442.660156 27.285156 L 75.953125 27.285156 L 75.953125 -339.421875 C 75.953125 -346.636719 70.070312 -352.519531 62.855469 -352.519531 C 55.644531 -352.519531 49.761719 -346.636719 49.761719 -339.421875 L 49.761719 27.285156 L -316.945312 27.285156 C -324.160156 27.285156 -330.042969 33.167969 -330.042969 40.378906 C -330.042969 47.59375 -324.160156 53.476562 -316.945312 53.476562 L 49.761719 53.476562 L 49.761719 420.183594 C 49.761719 427.394531 55.644531 433.277344 62.855469 433.277344 C 70.070312 433.277344 75.953125 427.394531 75.953125 420.183594 L 75.953125 53.476562 L 442.660156 53.476562 C 449.871094 53.476562 455.757812 47.59375 455.757812 40.378906 C 455.757812 33.167969 449.871094 27.285156 442.660156 27.285156 " fill-opacity="1" fill-rule="nonzero"/></g></svg>