<svg xmlns="http://www.w3.org/2000/svg" xmlns:xlink="http://www.w3.org/1999/xlink" width="720" zoomAndPan="magnify" viewBox="0 0 540 540.000001" height="720" preserveAspectRatio="xMidYMid meet" version="1.0"><defs><clipPath id="2a7fc62266"><path d="M 48 53.898438 L 539.5 53.898438 L 539.5 302 L 48 302 Z M 48 53.898438 " clip-rule="nonzero"/></clipPath><clipPath id="7b909e431a"><path d="M 0.5 97 L 328 97 L 328 266 L 0.5 266 Z M 0.5 97 " clip-rule="nonzero"/></clipPath></defs><g clip-path="url(#2a7fc62266)"><path fill="#a4e6f0" d="M 428.515625 53.476562 C 427.027344 53.476562 425.535156 53.511719 424.046875 53.585938 C 422.558594 53.660156 421.070312 53.769531 419.585938 53.914062 C 418.101562 54.058594 416.625 54.242188 415.148438 54.460938 C 413.671875 54.679688 412.203125 54.933594 410.742188 55.222656 C 409.277344 55.515625 407.824219 55.839844 406.378906 56.203125 C 404.929688 56.5625 403.496094 56.960938 402.066406 57.394531 C 400.640625 57.824219 399.222656 58.292969 397.820312 58.792969 C 396.417969 59.296875 395.023438 59.832031 393.648438 60.402344 C 392.269531 60.972656 390.90625 61.574219 389.558594 62.210938 C 388.210938 62.847656 386.878906 63.515625 385.5625 64.21875 C 384.246094 64.921875 382.949219 65.65625 381.667969 66.421875 C 380.390625 67.1875 379.128906 67.980469 377.886719 68.808594 C 376.648438 69.636719 375.429688 70.496094 374.230469 71.382812 C 373.03125 72.269531 371.855469 73.183594 370.703125 74.128906 C 369.546875 75.074219 368.417969 76.046875 367.3125 77.046875 C 366.207031 78.046875 365.125 79.074219 364.070312 80.125 C 363.015625 81.179688 361.984375 82.257812 360.980469 83.363281 C 359.980469 84.464844 359.003906 85.59375 358.058594 86.746094 C 357.109375 87.894531 356.191406 89.070312 355.300781 90.265625 C 354.410156 91.460938 353.550781 92.679688 352.722656 93.917969 C 351.890625 95.15625 351.089844 96.414062 350.324219 97.695312 C 349.554688 98.972656 348.816406 100.265625 348.113281 101.582031 C 347.40625 102.894531 346.734375 104.226562 346.09375 105.574219 C 345.457031 106.917969 344.847656 108.28125 344.277344 109.65625 C 343.703125 111.035156 343.164062 112.425781 342.660156 113.828125 C 342.152344 115.230469 341.683594 116.644531 341.25 118.070312 C 340.8125 119.496094 340.414062 120.933594 340.046875 122.378906 C 339.683594 123.824219 339.351562 125.277344 339.058594 126.742188 C 338.765625 128.203125 338.507812 129.671875 338.285156 131.144531 C 338.0625 132.621094 337.878906 134.097656 337.726562 135.582031 C 337.578125 137.066406 337.464844 138.550781 337.390625 140.042969 C 337.3125 141.53125 337.273438 143.019531 337.269531 144.511719 C 337.273438 145.742188 337.304688 146.96875 337.371094 148.195312 C 337.433594 149.421875 337.527344 150.644531 337.648438 151.867188 C 337.773438 153.089844 337.925781 154.308594 338.109375 155.523438 C 338.292969 156.738281 338.503906 157.949219 338.746094 159.152344 C 338.988281 160.355469 339.261719 161.554688 339.5625 162.746094 C 339.863281 163.9375 340.191406 165.121094 340.550781 166.292969 C 340.910156 167.46875 341.296875 168.636719 341.710938 169.792969 C 342.128906 170.945312 342.570312 172.09375 343.042969 173.226562 C 343.515625 174.359375 344.015625 175.484375 344.542969 176.59375 C 345.066406 177.703125 345.621094 178.800781 346.203125 179.882812 C 346.78125 180.964844 347.386719 182.03125 348.019531 183.085938 C 348.652344 184.140625 349.3125 185.175781 349.992188 186.195312 C 350.675781 187.21875 351.386719 188.222656 352.117188 189.207031 C 352.851562 190.195312 353.605469 191.160156 354.386719 192.109375 C 355.164062 193.0625 355.96875 193.992188 356.792969 194.898438 C 357.617188 195.808594 358.464844 196.699219 359.332031 197.570312 C 360.203125 198.4375 361.089844 199.285156 362 200.109375 C 362.910156 200.933594 363.839844 201.738281 364.789062 202.515625 C 365.738281 203.296875 366.707031 204.050781 367.695312 204.785156 C 368.679688 205.515625 369.683594 206.222656 370.703125 206.90625 C 371.726562 207.589844 372.761719 208.25 373.816406 208.882812 C 374.871094 209.515625 375.9375 210.121094 377.019531 210.699219 C 378.101562 211.28125 379.199219 211.832031 380.308594 212.359375 C 381.417969 212.886719 382.539062 213.386719 383.675781 213.859375 C 384.808594 214.328125 385.953125 214.773438 387.109375 215.1875 C 388.265625 215.605469 389.433594 215.992188 390.605469 216.351562 C 391.78125 216.710938 392.964844 217.039062 394.15625 217.339844 C 395.347656 217.640625 396.542969 217.914062 397.75 218.15625 C 398.953125 218.398438 400.164062 218.609375 401.378906 218.792969 C 402.59375 218.976562 403.8125 219.128906 405.035156 219.25 C 406.253906 219.375 407.480469 219.46875 408.707031 219.53125 C 409.933594 219.597656 411.160156 219.628906 412.390625 219.632812 C 414.425781 219.632812 416.457031 219.53125 418.484375 219.332031 C 420.511719 219.132812 422.523438 218.835938 424.519531 218.4375 C 426.515625 218.039062 428.488281 217.546875 430.4375 216.957031 C 432.386719 216.363281 434.300781 215.679688 436.183594 214.898438 C 438.066406 214.121094 439.902344 213.25 441.699219 212.289062 C 443.496094 211.332031 445.238281 210.285156 446.933594 209.152344 C 448.625 208.023438 450.261719 206.8125 451.835938 205.519531 C 453.40625 204.226562 454.914062 202.863281 456.355469 201.421875 C 457.796875 199.980469 459.160156 198.476562 460.453125 196.902344 C 461.746094 195.328125 462.957031 193.691406 464.085938 192 C 465.21875 190.304688 466.265625 188.5625 467.222656 186.765625 C 468.183594 184.96875 469.054688 183.132812 469.832031 181.25 C 470.613281 179.367188 471.296875 177.453125 471.890625 175.503906 C 472.480469 173.554688 472.972656 171.582031 473.371094 169.585938 C 473.769531 167.589844 474.066406 165.578125 474.265625 163.550781 C 474.464844 161.523438 474.566406 159.492188 474.566406 157.457031 C 474.566406 155.761719 474.484375 154.070312 474.316406 152.382812 C 474.152344 150.695312 473.902344 149.019531 473.570312 147.355469 C 473.242188 145.691406 472.828125 144.050781 472.335938 142.425781 C 471.84375 140.804688 471.273438 139.207031 470.625 137.640625 C 469.976562 136.074219 469.25 134.542969 468.453125 133.046875 C 467.652344 131.554688 466.78125 130.101562 465.839844 128.691406 C 464.898438 127.28125 463.890625 125.917969 462.8125 124.609375 C 461.738281 123.296875 460.601562 122.042969 459.402344 120.84375 C 458.203125 119.644531 456.945312 118.507812 455.636719 117.429688 C 454.324219 116.355469 452.964844 115.347656 451.554688 114.40625 C 450.144531 113.460938 448.691406 112.589844 447.195312 111.792969 C 445.699219 110.992188 444.167969 110.269531 442.601562 109.621094 C 441.035156 108.972656 439.441406 108.398438 437.820312 107.90625 C 436.195312 107.414062 434.550781 107.003906 432.890625 106.671875 C 431.226562 106.34375 429.550781 106.09375 427.863281 105.925781 C 426.175781 105.761719 424.484375 105.679688 422.789062 105.679688 C 421.359375 105.671875 419.933594 105.734375 418.511719 105.867188 C 417.085938 106 415.675781 106.203125 414.269531 106.476562 C 412.867188 106.75 411.480469 107.089844 410.113281 107.5 C 408.742188 107.910156 407.398438 108.386719 406.074219 108.929688 C 404.753906 109.46875 403.460938 110.078125 402.199219 110.746094 C 400.933594 111.414062 399.707031 112.144531 398.519531 112.9375 C 397.328125 113.726562 396.179688 114.574219 395.070312 115.476562 C 393.964844 116.378906 392.902344 117.335938 391.890625 118.34375 C 390.878906 119.351562 389.917969 120.40625 389.007812 121.511719 C 388.097656 122.613281 387.246094 123.757812 386.449219 124.945312 C 385.652344 126.132812 384.917969 127.355469 384.242188 128.613281 C 383.566406 129.875 382.953125 131.164062 382.40625 132.484375 C 381.855469 133.804688 381.375 135.148438 380.957031 136.515625 C 380.542969 137.882812 380.195312 139.265625 379.914062 140.667969 C 379.636719 142.070312 379.425781 143.480469 379.285156 144.902344 C 379.144531 146.324219 379.074219 147.75 379.074219 149.179688 C 379.074219 150.398438 379.132812 151.609375 379.253906 152.820312 C 379.371094 154.03125 379.550781 155.234375 379.789062 156.425781 C 380.023438 157.617188 380.320312 158.796875 380.671875 159.960938 C 381.027344 161.125 381.433594 162.269531 381.898438 163.390625 C 382.367188 164.515625 382.886719 165.613281 383.457031 166.6875 C 384.03125 167.757812 384.65625 168.800781 385.332031 169.8125 C 386.007812 170.824219 386.730469 171.800781 387.503906 172.738281 C 388.273438 173.679688 389.089844 174.578125 389.949219 175.441406 C 390.808594 176.300781 391.710938 177.117188 392.652344 177.886719 C 393.589844 178.660156 394.566406 179.382812 395.578125 180.058594 C 396.589844 180.734375 397.632812 181.359375 398.703125 181.929688 C 399.777344 182.503906 400.875 183.023438 402 183.488281 C 403.121094 183.953125 404.265625 184.363281 405.429688 184.71875 C 406.59375 185.070312 407.773438 185.367188 408.964844 185.601562 C 410.15625 185.839844 411.359375 186.019531 412.570312 186.136719 C 413.78125 186.257812 414.992188 186.316406 416.210938 186.316406 C 416.902344 186.304688 417.585938 186.222656 418.265625 186.078125 C 418.941406 185.933594 419.601562 185.726562 420.238281 185.453125 C 420.875 185.183594 421.480469 184.851562 422.054688 184.464844 C 422.628906 184.078125 423.164062 183.636719 423.652344 183.148438 C 424.140625 182.660156 424.582031 182.125 424.96875 181.550781 C 425.355469 180.976562 425.6875 180.371094 425.957031 179.734375 C 426.230469 179.097656 426.4375 178.4375 426.582031 177.761719 C 426.726562 177.085938 426.804688 176.398438 426.820312 175.707031 C 426.820312 175.007812 426.75 174.320312 426.617188 173.636719 C 426.480469 172.953125 426.277344 172.289062 426.011719 171.644531 C 425.746094 171.003906 425.417969 170.390625 425.03125 169.8125 C 424.644531 169.230469 424.203125 168.695312 423.710938 168.203125 C 423.21875 167.710938 422.683594 167.269531 422.105469 166.882812 C 421.523438 166.496094 420.914062 166.171875 420.269531 165.902344 C 419.625 165.636719 418.960938 165.4375 418.28125 165.300781 C 417.597656 165.164062 416.90625 165.097656 416.210938 165.097656 C 415.167969 165.082031 414.136719 164.96875 413.121094 164.753906 C 412.101562 164.542969 411.109375 164.234375 410.152344 163.828125 C 409.191406 163.425781 408.28125 162.929688 407.417969 162.351562 C 406.554688 161.769531 405.753906 161.109375 405.015625 160.375 C 404.28125 159.636719 403.621094 158.835938 403.039062 157.972656 C 402.457031 157.109375 401.964844 156.199219 401.5625 155.238281 C 401.15625 154.28125 400.847656 153.289062 400.632812 152.269531 C 400.421875 151.25 400.308594 150.222656 400.292969 149.179688 C 400.300781 148.449219 400.34375 147.71875 400.421875 146.988281 C 400.5 146.261719 400.613281 145.539062 400.761719 144.820312 C 400.910156 144.105469 401.09375 143.398438 401.3125 142.699219 C 401.53125 142 401.78125 141.3125 402.066406 140.636719 C 402.351562 139.964844 402.667969 139.304688 403.019531 138.660156 C 403.367188 138.015625 403.746094 137.390625 404.160156 136.785156 C 404.570312 136.179688 405.007812 135.59375 405.476562 135.03125 C 405.941406 134.464844 406.4375 133.925781 406.957031 133.410156 C 407.476562 132.898438 408.019531 132.40625 408.589844 131.945312 C 409.15625 131.484375 409.746094 131.050781 410.355469 130.644531 C 410.96875 130.242188 411.597656 129.867188 412.242188 129.523438 C 412.890625 129.179688 413.550781 128.871094 414.230469 128.589844 C 414.90625 128.3125 415.59375 128.066406 416.296875 127.855469 C 416.996094 127.644531 417.707031 127.46875 418.425781 127.324219 C 419.144531 127.183594 419.867188 127.078125 420.597656 127.003906 C 421.324219 126.933594 422.054688 126.898438 422.789062 126.898438 C 423.785156 126.90625 424.78125 126.960938 425.777344 127.066406 C 426.769531 127.167969 427.757812 127.320312 428.734375 127.519531 C 429.714844 127.71875 430.679688 127.96875 431.636719 128.261719 C 432.589844 128.554688 433.527344 128.894531 434.449219 129.28125 C 435.371094 129.667969 436.269531 130.097656 437.152344 130.570312 C 438.03125 131.042969 438.886719 131.558594 439.714844 132.113281 C 440.542969 132.667969 441.34375 133.265625 442.117188 133.898438 C 442.886719 134.535156 443.628906 135.203125 444.335938 135.910156 C 445.039062 136.617188 445.710938 137.355469 446.34375 138.128906 C 446.980469 138.898438 447.574219 139.699219 448.132812 140.527344 C 448.6875 141.359375 449.203125 142.214844 449.675781 143.09375 C 450.148438 143.972656 450.578125 144.875 450.964844 145.796875 C 451.347656 146.714844 451.6875 147.65625 451.984375 148.609375 C 452.277344 149.5625 452.523438 150.53125 452.722656 151.507812 C 452.921875 152.488281 453.074219 153.472656 453.179688 154.46875 C 453.285156 155.460938 453.339844 156.457031 453.34375 157.457031 C 453.339844 158.796875 453.265625 160.132812 453.128906 161.464844 C 452.992188 162.796875 452.789062 164.121094 452.523438 165.433594 C 452.257812 166.746094 451.925781 168.042969 451.535156 169.320312 C 451.140625 170.601562 450.6875 171.859375 450.171875 173.097656 C 449.65625 174.332031 449.082031 175.542969 448.449219 176.722656 C 447.8125 177.902344 447.125 179.046875 446.378906 180.160156 C 445.632812 181.273438 444.835938 182.347656 443.984375 183.382812 C 443.132812 184.417969 442.234375 185.40625 441.289062 186.355469 C 440.339844 187.300781 439.351562 188.199219 438.316406 189.050781 C 437.28125 189.902344 436.207031 190.699219 435.09375 191.445312 C 433.980469 192.191406 432.835938 192.878906 431.65625 193.515625 C 430.472656 194.148438 429.265625 194.722656 428.03125 195.238281 C 426.792969 195.753906 425.535156 196.207031 424.253906 196.601562 C 422.972656 196.996094 421.679688 197.324219 420.367188 197.589844 C 419.050781 197.855469 417.730469 198.058594 416.398438 198.195312 C 415.066406 198.332031 413.730469 198.40625 412.390625 198.414062 C 410.625 198.414062 408.863281 198.324219 407.105469 198.152344 C 405.351562 197.980469 403.605469 197.722656 401.875 197.375 C 400.144531 197.03125 398.433594 196.605469 396.742188 196.089844 C 395.054688 195.578125 393.394531 194.984375 391.761719 194.308594 C 390.132812 193.632812 388.539062 192.878906 386.980469 192.046875 C 385.425781 191.214844 383.914062 190.308594 382.445312 189.328125 C 380.976562 188.347656 379.5625 187.296875 378.195312 186.175781 C 376.832031 185.058594 375.523438 183.875 374.277344 182.625 C 373.027344 181.375 371.84375 180.070312 370.722656 178.707031 C 369.605469 177.339844 368.554688 175.925781 367.574219 174.457031 C 366.59375 172.988281 365.6875 171.476562 364.855469 169.921875 C 364.023438 168.363281 363.269531 166.769531 362.59375 165.136719 C 361.917969 163.507812 361.324219 161.847656 360.8125 160.160156 C 360.296875 158.46875 359.871094 156.757812 359.523438 155.027344 C 359.179688 153.296875 358.921875 151.550781 358.75 149.796875 C 358.578125 148.039062 358.488281 146.277344 358.488281 144.511719 C 358.492188 143.367188 358.523438 142.226562 358.585938 141.082031 C 358.644531 139.941406 358.730469 138.800781 358.847656 137.664062 C 358.960938 136.523438 359.105469 135.390625 359.277344 134.257812 C 359.445312 133.128906 359.644531 132 359.871094 130.878906 C 360.097656 129.757812 360.351562 128.644531 360.632812 127.535156 C 360.914062 126.425781 361.21875 125.324219 361.554688 124.230469 C 361.890625 123.136719 362.25 122.050781 362.640625 120.976562 C 363.027344 119.902344 363.441406 118.835938 363.882812 117.777344 C 364.320312 116.722656 364.785156 115.679688 365.277344 114.644531 C 365.769531 113.613281 366.285156 112.59375 366.828125 111.585938 C 367.367188 110.578125 367.933594 109.582031 368.523438 108.601562 C 369.113281 107.625 369.726562 106.660156 370.363281 105.707031 C 371.003906 104.757812 371.664062 103.824219 372.34375 102.90625 C 373.027344 101.988281 373.734375 101.089844 374.460938 100.207031 C 375.1875 99.324219 375.9375 98.460938 376.707031 97.613281 C 377.476562 96.765625 378.265625 95.941406 379.074219 95.132812 C 379.886719 94.324219 380.714844 93.539062 381.5625 92.769531 C 382.410156 92.003906 383.277344 91.257812 384.164062 90.53125 C 385.050781 89.808594 385.953125 89.105469 386.871094 88.425781 C 387.789062 87.746094 388.726562 87.089844 389.679688 86.453125 C 390.628906 85.820312 391.597656 85.207031 392.578125 84.621094 C 393.558594 84.035156 394.554688 83.472656 395.566406 82.933594 C 396.574219 82.394531 397.597656 81.882812 398.628906 81.394531 C 399.664062 80.90625 400.710938 80.445312 401.769531 80.007812 C 402.824219 79.570312 403.890625 79.160156 404.96875 78.773438 C 406.046875 78.390625 407.132812 78.03125 408.226562 77.699219 C 409.320312 77.367188 410.425781 77.0625 411.535156 76.785156 C 412.644531 76.507812 413.757812 76.257812 414.882812 76.035156 C 416.003906 75.8125 417.128906 75.617188 418.261719 75.453125 C 419.394531 75.285156 420.527344 75.144531 421.667969 75.03125 C 422.804688 74.921875 423.945312 74.835938 425.089844 74.78125 C 426.230469 74.722656 427.375 74.695312 428.515625 74.695312 C 429.988281 74.695312 431.460938 74.734375 432.933594 74.804688 C 434.402344 74.878906 435.871094 74.984375 437.335938 75.128906 C 438.800781 75.273438 440.261719 75.453125 441.71875 75.671875 C 443.175781 75.886719 444.625 76.136719 446.070312 76.425781 C 447.515625 76.710938 448.953125 77.035156 450.378906 77.394531 C 451.808594 77.75 453.226562 78.144531 454.636719 78.570312 C 456.046875 79 457.441406 79.460938 458.828125 79.957031 C 460.214844 80.453125 461.589844 80.980469 462.949219 81.546875 C 464.308594 82.109375 465.65625 82.707031 466.988281 83.335938 C 468.316406 83.964844 469.632812 84.625 470.929688 85.320312 C 472.230469 86.015625 473.511719 86.738281 474.773438 87.496094 C 476.035156 88.253906 477.28125 89.042969 478.503906 89.859375 C 479.730469 90.679688 480.933594 91.527344 482.117188 92.402344 C 483.296875 93.28125 484.457031 94.1875 485.597656 95.121094 C 486.734375 96.054688 487.851562 97.015625 488.941406 98.003906 C 490.03125 98.992188 491.097656 100.007812 492.140625 101.050781 C 493.179688 102.089844 494.195312 103.15625 495.183594 104.246094 C 496.171875 105.339844 497.136719 106.453125 498.070312 107.59375 C 499.003906 108.730469 499.910156 109.890625 500.785156 111.074219 C 501.664062 112.257812 502.511719 113.460938 503.328125 114.683594 C 504.148438 115.910156 504.933594 117.152344 505.691406 118.414062 C 506.449219 119.679688 507.175781 120.957031 507.867188 122.257812 C 508.5625 123.554688 509.222656 124.871094 509.855469 126.203125 C 510.484375 127.535156 511.078125 128.878906 511.644531 130.238281 C 512.207031 131.601562 512.738281 132.972656 513.234375 134.359375 C 513.730469 135.746094 514.191406 137.144531 514.617188 138.554688 C 515.046875 139.960938 515.4375 141.382812 515.796875 142.808594 C 516.152344 144.238281 516.476562 145.675781 516.765625 147.117188 C 517.050781 148.5625 517.300781 150.011719 517.519531 151.46875 C 517.734375 152.925781 517.914062 154.386719 518.058594 155.851562 C 518.203125 157.316406 518.3125 158.785156 518.382812 160.257812 C 518.457031 161.726562 518.492188 163.199219 518.492188 164.671875 C 518.492188 166.558594 518.445312 168.441406 518.355469 170.324219 C 518.261719 172.207031 518.121094 174.089844 517.9375 175.964844 C 517.753906 177.84375 517.523438 179.714844 517.246094 181.578125 C 516.96875 183.445312 516.644531 185.300781 516.277344 187.152344 C 515.910156 189 515.496094 190.839844 515.039062 192.667969 C 514.582031 194.5 514.078125 196.316406 513.53125 198.121094 C 512.984375 199.925781 512.390625 201.714844 511.757812 203.492188 C 511.121094 205.265625 510.441406 207.023438 509.722656 208.765625 C 509 210.507812 508.234375 212.234375 507.429688 213.9375 C 506.625 215.640625 505.777344 217.328125 504.886719 218.988281 C 503.996094 220.652344 503.070312 222.292969 502.097656 223.910156 C 501.128906 225.527344 500.121094 227.121094 499.074219 228.6875 C 498.027344 230.257812 496.941406 231.796875 495.816406 233.3125 C 494.691406 234.828125 493.535156 236.3125 492.335938 237.769531 C 491.140625 239.230469 489.910156 240.65625 488.644531 242.054688 C 487.375 243.449219 486.078125 244.816406 484.742188 246.148438 C 483.410156 247.484375 482.042969 248.78125 480.648438 250.050781 C 479.25 251.316406 477.824219 252.546875 476.363281 253.742188 C 474.90625 254.941406 473.421875 256.101562 471.90625 257.222656 C 470.390625 258.347656 468.851562 259.433594 467.28125 260.480469 C 465.714844 261.527344 464.121094 262.535156 462.503906 263.503906 C 460.886719 264.476562 459.246094 265.402344 457.582031 266.292969 C 455.917969 267.183594 454.234375 268.03125 452.53125 268.835938 C 450.828125 269.640625 449.101562 270.40625 447.359375 271.128906 C 445.617188 271.847656 443.859375 272.527344 442.082031 273.164062 C 440.308594 273.796875 438.519531 274.390625 436.714844 274.9375 C 434.910156 275.484375 433.09375 275.988281 431.261719 276.445312 C 429.433594 276.902344 427.59375 277.316406 425.746094 277.683594 C 423.894531 278.054688 422.039062 278.375 420.171875 278.652344 C 418.308594 278.929688 416.4375 279.160156 414.558594 279.34375 C 412.683594 279.527344 410.800781 279.667969 408.917969 279.761719 C 407.035156 279.851562 405.152344 279.898438 403.265625 279.898438 L 58.855469 279.898438 C 58.164062 279.914062 57.476562 279.992188 56.800781 280.136719 C 56.121094 280.28125 55.464844 280.488281 54.828125 280.761719 C 54.191406 281.03125 53.582031 281.363281 53.007812 281.75 C 52.433594 282.136719 51.902344 282.578125 51.414062 283.066406 C 50.921875 283.558594 50.484375 284.089844 50.097656 284.664062 C 49.707031 285.238281 49.378906 285.84375 49.109375 286.480469 C 48.835938 287.117188 48.628906 287.777344 48.484375 288.453125 C 48.339844 289.132812 48.257812 289.816406 48.246094 290.507812 C 48.246094 291.207031 48.3125 291.894531 48.449219 292.578125 C 48.585938 293.261719 48.785156 293.925781 49.054688 294.570312 C 49.320312 295.214844 49.644531 295.824219 50.035156 296.402344 C 50.421875 296.984375 50.859375 297.519531 51.351562 298.011719 C 51.84375 298.503906 52.382812 298.945312 52.960938 299.332031 C 53.539062 299.71875 54.152344 300.046875 54.796875 300.3125 C 55.4375 300.578125 56.101562 300.78125 56.785156 300.914062 C 57.46875 301.050781 58.160156 301.121094 58.855469 301.121094 L 403.265625 301.121094 C 405.5 301.121094 407.730469 301.066406 409.960938 300.957031 C 412.191406 300.84375 414.417969 300.679688 416.640625 300.460938 C 418.863281 300.242188 421.078125 299.96875 423.285156 299.644531 C 425.496094 299.316406 427.695312 298.933594 429.882812 298.496094 C 432.074219 298.0625 434.253906 297.574219 436.417969 297.03125 C 438.585938 296.488281 440.738281 295.890625 442.875 295.246094 C 445.011719 294.597656 447.128906 293.894531 449.234375 293.144531 C 451.335938 292.390625 453.417969 291.585938 455.480469 290.734375 C 457.542969 289.878906 459.585938 288.972656 461.605469 288.019531 C 463.621094 287.0625 465.617188 286.0625 467.585938 285.007812 C 469.554688 283.957031 471.496094 282.855469 473.414062 281.707031 C 475.328125 280.558594 477.214844 279.363281 479.070312 278.125 C 480.929688 276.882812 482.753906 275.597656 484.546875 274.269531 C 486.339844 272.9375 488.101562 271.5625 489.828125 270.148438 C 491.554688 268.730469 493.242188 267.273438 494.898438 265.773438 C 496.550781 264.273438 498.167969 262.734375 499.75 261.15625 C 501.328125 259.574219 502.867188 257.960938 504.367188 256.304688 C 505.867188 254.648438 507.324219 252.960938 508.742188 251.234375 C 510.15625 249.507812 511.53125 247.746094 512.859375 245.953125 C 514.191406 244.160156 515.476562 242.335938 516.71875 240.476562 C 517.957031 238.621094 519.152344 236.734375 520.300781 234.820312 C 521.449219 232.90625 522.550781 230.960938 523.601562 228.992188 C 524.652344 227.023438 525.65625 225.027344 526.613281 223.011719 C 527.566406 220.992188 528.472656 218.949219 529.328125 216.886719 C 530.179688 214.824219 530.984375 212.742188 531.738281 210.640625 C 532.488281 208.535156 533.191406 206.417969 533.835938 204.28125 C 534.484375 202.144531 535.082031 199.992188 535.625 197.824219 C 536.167969 195.660156 536.65625 193.480469 537.089844 191.292969 C 537.527344 189.101562 537.910156 186.902344 538.234375 184.691406 C 538.5625 182.484375 538.835938 180.269531 539.054688 178.046875 C 539.273438 175.824219 539.4375 173.597656 539.546875 171.367188 C 539.660156 169.136719 539.714844 166.90625 539.714844 164.671875 C 539.710938 162.851562 539.660156 161.035156 539.570312 159.21875 C 539.476562 157.402344 539.339844 155.589844 539.160156 153.777344 C 538.976562 151.96875 538.75 150.164062 538.480469 148.367188 C 538.210938 146.566406 537.898438 144.777344 537.542969 142.992188 C 537.183594 141.210938 536.785156 139.4375 536.339844 137.671875 C 535.894531 135.910156 535.40625 134.15625 534.878906 132.417969 C 534.347656 130.675781 533.773438 128.949219 533.160156 127.238281 C 532.546875 125.527344 531.890625 123.832031 531.191406 122.152344 C 530.496094 120.472656 529.757812 118.808594 528.976562 117.167969 C 528.199219 115.523438 527.378906 113.898438 526.519531 112.296875 C 525.664062 110.691406 524.765625 109.109375 523.828125 107.550781 C 522.894531 105.992188 521.917969 104.457031 520.910156 102.945312 C 519.898438 101.433594 518.847656 99.945312 517.765625 98.484375 C 516.679688 97.027344 515.5625 95.59375 514.40625 94.1875 C 513.253906 92.78125 512.066406 91.402344 510.84375 90.058594 C 509.621094 88.710938 508.367188 87.390625 507.082031 86.105469 C 505.796875 84.820312 504.480469 83.566406 503.132812 82.34375 C 501.785156 81.121094 500.40625 79.933594 499.003906 78.78125 C 497.597656 77.625 496.164062 76.507812 494.703125 75.421875 C 493.242188 74.339844 491.757812 73.292969 490.246094 72.28125 C 488.734375 71.269531 487.195312 70.296875 485.636719 69.359375 C 484.078125 68.421875 482.496094 67.527344 480.894531 66.667969 C 479.289062 65.808594 477.664062 64.992188 476.023438 64.210938 C 474.378906 63.433594 472.71875 62.695312 471.039062 61.996094 C 469.359375 61.300781 467.660156 60.644531 465.949219 60.027344 C 464.238281 59.414062 462.511719 58.839844 460.773438 58.3125 C 459.03125 57.78125 457.28125 57.292969 455.515625 56.851562 C 453.753906 56.40625 451.980469 56.003906 450.195312 55.648438 C 448.414062 55.289062 446.621094 54.976562 444.824219 54.707031 C 443.023438 54.4375 441.21875 54.210938 439.410156 54.03125 C 437.601562 53.847656 435.785156 53.710938 433.96875 53.621094 C 432.152344 53.527344 430.335938 53.480469 428.515625 53.476562 Z M 428.515625 53.476562 " fill-opacity="1" fill-rule="nonzero"/></g><path fill="#a4e6f0" d="M 329.207031 314.914062 L 105.328125 314.914062 C 104.636719 314.925781 103.949219 315.003906 103.273438 315.152344 C 102.59375 315.296875 101.9375 315.503906 101.300781 315.773438 C 100.664062 316.046875 100.058594 316.375 99.484375 316.765625 C 98.90625 317.152344 98.375 317.589844 97.886719 318.082031 C 97.394531 318.570312 96.957031 319.101562 96.570312 319.675781 C 96.183594 320.25 95.851562 320.855469 95.582031 321.496094 C 95.308594 322.132812 95.101562 322.789062 94.957031 323.46875 C 94.8125 324.144531 94.730469 324.832031 94.71875 325.523438 C 94.71875 326.21875 94.785156 326.910156 94.921875 327.59375 C 95.058594 328.277344 95.257812 328.941406 95.527344 329.582031 C 95.792969 330.226562 96.121094 330.839844 96.507812 331.417969 C 96.894531 331.996094 97.332031 332.53125 97.824219 333.027344 C 98.320312 333.519531 98.855469 333.957031 99.433594 334.34375 C 100.011719 334.730469 100.625 335.058594 101.269531 335.324219 C 101.910156 335.59375 102.574219 335.792969 103.257812 335.929688 C 103.941406 336.066406 104.632812 336.132812 105.328125 336.132812 L 329.207031 336.132812 C 330.371094 336.136719 331.535156 336.167969 332.699219 336.230469 C 333.863281 336.289062 335.027344 336.378906 336.1875 336.496094 C 337.347656 336.613281 338.503906 336.757812 339.65625 336.933594 C 340.808594 337.105469 341.957031 337.308594 343.101562 337.539062 C 344.242188 337.769531 345.378906 338.027344 346.511719 338.3125 C 347.640625 338.597656 348.765625 338.910156 349.878906 339.25 C 350.996094 339.589844 352.101562 339.960938 353.199219 340.355469 C 354.292969 340.75 355.382812 341.167969 356.457031 341.617188 C 357.535156 342.066406 358.601562 342.539062 359.652344 343.039062 C 360.707031 343.539062 361.746094 344.0625 362.773438 344.613281 C 363.800781 345.164062 364.816406 345.742188 365.816406 346.339844 C 366.816406 346.941406 367.800781 347.566406 368.769531 348.214844 C 369.738281 348.863281 370.691406 349.535156 371.625 350.230469 C 372.5625 350.925781 373.480469 351.644531 374.382812 352.382812 C 375.28125 353.121094 376.164062 353.882812 377.027344 354.667969 C 377.890625 355.449219 378.738281 356.253906 379.5625 357.078125 C 380.386719 357.902344 381.1875 358.746094 381.972656 359.609375 C 382.753906 360.476562 383.515625 361.359375 384.257812 362.257812 C 384.996094 363.160156 385.714844 364.078125 386.410156 365.015625 C 387.105469 365.949219 387.777344 366.902344 388.425781 367.871094 C 389.074219 368.839844 389.699219 369.824219 390.296875 370.824219 C 390.898438 371.824219 391.472656 372.835938 392.023438 373.867188 C 392.574219 374.894531 393.101562 375.933594 393.601562 376.988281 C 394.101562 378.039062 394.574219 379.105469 395.023438 380.183594 C 395.46875 381.257812 395.890625 382.34375 396.285156 383.441406 C 396.679688 384.539062 397.046875 385.644531 397.390625 386.761719 C 397.730469 387.875 398.042969 389 398.328125 390.128906 C 398.613281 391.257812 398.871094 392.394531 399.101562 393.539062 C 399.332031 394.683594 399.535156 395.832031 399.707031 396.984375 C 399.882812 398.136719 400.027344 399.292969 400.144531 400.453125 C 400.261719 401.613281 400.351562 402.773438 400.410156 403.9375 C 400.472656 405.101562 400.503906 406.269531 400.507812 407.433594 C 400.5 409.230469 400.40625 411.019531 400.222656 412.808594 C 400.039062 414.59375 399.769531 416.367188 399.414062 418.125 C 399.058594 419.886719 398.617188 421.625 398.089844 423.339844 C 397.5625 425.058594 396.953125 426.746094 396.261719 428.402344 C 395.570312 430.058594 394.800781 431.679688 393.949219 433.257812 C 393.097656 434.839844 392.171875 436.375 391.171875 437.867188 C 390.167969 439.359375 389.097656 440.796875 387.957031 442.179688 C 386.8125 443.566406 385.605469 444.894531 384.332031 446.160156 C 383.0625 447.429688 381.730469 448.628906 380.339844 449.765625 C 378.949219 450.902344 377.507812 451.96875 376.015625 452.964844 C 374.519531 453.960938 372.980469 454.878906 371.394531 455.726562 C 369.8125 456.570312 368.1875 457.335938 366.527344 458.019531 C 364.871094 458.707031 363.179688 459.308594 361.460938 459.828125 C 359.742188 460.347656 358.003906 460.78125 356.242188 461.132812 C 354.480469 461.480469 352.707031 461.746094 350.917969 461.921875 C 349.132812 462.097656 347.339844 462.183594 345.546875 462.183594 C 344.15625 462.183594 342.769531 462.117188 341.386719 461.980469 C 340 461.84375 338.628906 461.640625 337.265625 461.367188 C 335.902344 461.097656 334.554688 460.757812 333.226562 460.355469 C 331.894531 459.953125 330.585938 459.484375 329.304688 458.953125 C 328.019531 458.421875 326.765625 457.828125 325.539062 457.171875 C 324.3125 456.515625 323.121094 455.804688 321.964844 455.03125 C 320.808594 454.257812 319.695312 453.429688 318.621094 452.550781 C 317.546875 451.667969 316.519531 450.734375 315.535156 449.753906 C 314.550781 448.769531 313.621094 447.742188 312.738281 446.667969 C 311.855469 445.59375 311.027344 444.476562 310.257812 443.320312 C 309.484375 442.164062 308.769531 440.976562 308.117188 439.75 C 307.460938 438.523438 306.867188 437.269531 306.335938 435.984375 C 305.804688 434.699219 305.335938 433.390625 304.929688 432.0625 C 304.527344 430.730469 304.191406 429.386719 303.917969 428.023438 C 303.648438 426.660156 303.445312 425.285156 303.308594 423.902344 C 303.171875 422.519531 303.105469 421.132812 303.105469 419.742188 C 303.109375 418.71875 303.167969 417.695312 303.273438 416.679688 C 303.382812 415.660156 303.539062 414.648438 303.742188 413.644531 C 303.949219 412.640625 304.203125 411.652344 304.507812 410.671875 C 304.808594 409.695312 305.160156 408.734375 305.554688 407.789062 C 305.953125 406.84375 306.394531 405.921875 306.882812 405.019531 C 307.367188 404.121094 307.898438 403.246094 308.46875 402.394531 C 309.042969 401.546875 309.65625 400.726562 310.308594 399.9375 C 310.960938 399.148438 311.652344 398.394531 312.378906 397.671875 C 313.105469 396.949219 313.863281 396.265625 314.65625 395.617188 C 315.453125 394.972656 316.273438 394.363281 317.128906 393.796875 C 317.980469 393.230469 318.859375 392.707031 319.765625 392.226562 C 320.667969 391.746094 321.59375 391.308594 322.539062 390.917969 C 323.488281 390.527344 324.449219 390.183594 325.429688 389.890625 C 326.410156 389.59375 327.40625 389.34375 328.410156 389.144531 C 329.414062 388.949219 330.425781 388.796875 331.445312 388.699219 C 332.464844 388.597656 333.484375 388.546875 334.511719 388.546875 L 336.84375 388.546875 C 335.933594 388.570312 335.027344 388.632812 334.121094 388.742188 C 333.21875 388.855469 332.320312 389.007812 331.433594 389.207031 C 330.542969 389.402344 329.667969 389.644531 328.800781 389.929688 C 327.9375 390.210938 327.085938 390.539062 326.253906 390.90625 C 325.421875 391.273438 324.605469 391.679688 323.8125 392.128906 C 323.019531 392.578125 322.25 393.0625 321.507812 393.585938 C 320.761719 394.109375 320.042969 394.667969 319.351562 395.261719 C 318.660156 395.855469 318 396.480469 317.371094 397.136719 C 316.742188 397.796875 316.148438 398.484375 315.585938 399.203125 C 315.023438 399.917969 314.5 400.660156 314.011719 401.429688 C 313.523438 402.199219 313.074219 402.988281 312.664062 403.804688 C 312.25 404.617188 311.882812 405.445312 311.554688 406.296875 C 311.222656 407.144531 310.9375 408.007812 310.691406 408.886719 C 310.449219 409.761719 310.25 410.652344 310.089844 411.546875 C 309.933594 412.445312 309.820312 413.347656 309.753906 414.253906 C 309.683594 415.164062 309.660156 416.074219 309.683594 416.984375 C 309.683594 418.035156 309.734375 419.082031 309.835938 420.125 C 309.941406 421.167969 310.09375 422.207031 310.296875 423.234375 C 310.503906 424.265625 310.757812 425.28125 311.0625 426.285156 C 311.367188 427.289062 311.71875 428.277344 312.121094 429.246094 C 312.523438 430.214844 312.972656 431.164062 313.464844 432.089844 C 313.960938 433.015625 314.5 433.914062 315.082031 434.785156 C 315.664062 435.660156 316.289062 436.5 316.957031 437.3125 C 317.621094 438.121094 318.324219 438.898438 319.066406 439.640625 C 319.808594 440.382812 320.585938 441.085938 321.398438 441.753906 C 322.207031 442.417969 323.050781 443.042969 323.921875 443.625 C 324.796875 444.210938 325.695312 444.75 326.621094 445.242188 C 327.546875 445.738281 328.492188 446.1875 329.464844 446.585938 C 330.433594 446.988281 331.417969 447.34375 332.425781 447.648438 C 333.429688 447.953125 334.445312 448.207031 335.472656 448.410156 C 336.503906 448.617188 337.539062 448.769531 338.585938 448.871094 C 339.628906 448.976562 340.675781 449.027344 341.726562 449.027344 C 342.953125 449.035156 344.179688 448.980469 345.402344 448.867188 C 346.621094 448.753906 347.835938 448.578125 349.042969 448.34375 C 350.246094 448.113281 351.4375 447.820312 352.613281 447.46875 C 353.789062 447.117188 354.945312 446.710938 356.082031 446.246094 C 357.21875 445.78125 358.328125 445.261719 359.414062 444.6875 C 360.5 444.109375 361.554688 443.484375 362.578125 442.804688 C 363.601562 442.128906 364.585938 441.402344 365.539062 440.625 C 366.492188 439.847656 367.402344 439.027344 368.273438 438.164062 C 369.140625 437.296875 369.96875 436.390625 370.75 435.445312 C 371.53125 434.496094 372.261719 433.515625 372.949219 432.496094 C 373.632812 431.476562 374.265625 430.425781 374.84375 429.34375 C 375.425781 428.261719 375.953125 427.152344 376.421875 426.019531 C 376.894531 424.886719 377.308594 423.734375 377.667969 422.558594 C 378.023438 421.382812 378.324219 420.195312 378.5625 418.992188 C 378.804688 417.785156 378.984375 416.574219 379.105469 415.351562 C 379.226562 414.132812 379.285156 412.90625 379.285156 411.679688 C 379.285156 410.234375 379.214844 408.789062 379.074219 407.351562 C 378.933594 405.914062 378.71875 404.484375 378.4375 403.066406 C 378.15625 401.648438 377.804688 400.25 377.386719 398.867188 C 376.964844 397.480469 376.480469 396.121094 375.925781 394.789062 C 375.371094 393.453125 374.753906 392.148438 374.074219 390.871094 C 373.390625 389.597656 372.648438 388.359375 371.847656 387.15625 C 371.042969 385.953125 370.183594 384.792969 369.265625 383.675781 C 368.351562 382.558594 367.378906 381.488281 366.359375 380.46875 C 365.335938 379.445312 364.265625 378.476562 363.148438 377.558594 C 362.03125 376.640625 360.871094 375.78125 359.667969 374.980469 C 358.46875 374.175781 357.230469 373.433594 355.953125 372.75 C 354.679688 372.070312 353.375 371.453125 352.039062 370.898438 C 350.703125 370.347656 349.34375 369.859375 347.960938 369.441406 C 346.578125 369.019531 345.175781 368.671875 343.757812 368.386719 C 342.339844 368.105469 340.910156 367.894531 339.472656 367.753906 C 338.035156 367.609375 336.59375 367.539062 335.148438 367.539062 C 333.429688 367.539062 331.714844 367.625 330.003906 367.792969 C 328.292969 367.960938 326.59375 368.210938 324.90625 368.546875 C 323.21875 368.878906 321.554688 369.296875 319.910156 369.792969 C 318.261719 370.292969 316.644531 370.871094 315.054688 371.527344 C 313.46875 372.183594 311.914062 372.914062 310.398438 373.722656 C 308.878906 374.53125 307.40625 375.410156 305.976562 376.363281 C 304.542969 377.316406 303.164062 378.339844 301.832031 379.425781 C 300.5 380.515625 299.226562 381.664062 298.007812 382.878906 C 296.789062 384.09375 295.636719 385.363281 294.542969 386.6875 C 293.449219 388.015625 292.421875 389.390625 291.464844 390.820312 C 290.503906 392.246094 289.617188 393.714844 288.804688 395.230469 C 287.988281 396.742188 287.25 398.292969 286.585938 399.878906 C 285.925781 401.464844 285.339844 403.082031 284.835938 404.726562 C 284.332031 406.367188 283.910156 408.03125 283.566406 409.71875 C 283.226562 411.402344 282.96875 413.101562 282.792969 414.808594 C 282.617188 416.519531 282.527344 418.234375 282.519531 419.953125 C 282.519531 420.996094 282.546875 422.039062 282.597656 423.078125 C 282.648438 424.117188 282.722656 425.15625 282.828125 426.195312 C 282.929688 427.230469 283.054688 428.265625 283.210938 429.296875 C 283.363281 430.328125 283.539062 431.351562 283.742188 432.375 C 283.945312 433.394531 284.175781 434.414062 284.429688 435.421875 C 284.679688 436.433594 284.957031 437.4375 285.261719 438.433594 C 285.5625 439.429688 285.890625 440.421875 286.242188 441.402344 C 286.59375 442.382812 286.96875 443.355469 287.367188 444.316406 C 287.765625 445.28125 288.1875 446.230469 288.632812 447.171875 C 289.078125 448.113281 289.546875 449.046875 290.039062 449.964844 C 290.527344 450.882812 291.042969 451.789062 291.578125 452.683594 C 292.113281 453.578125 292.671875 454.457031 293.25 455.324219 C 293.828125 456.1875 294.425781 457.039062 295.046875 457.878906 C 295.667969 458.714844 296.308594 459.535156 296.96875 460.339844 C 297.632812 461.144531 298.3125 461.933594 299.011719 462.707031 C 299.710938 463.480469 300.429688 464.234375 301.167969 464.96875 C 301.902344 465.707031 302.65625 466.425781 303.429688 467.125 C 304.199219 467.824219 304.988281 468.503906 305.796875 469.164062 C 306.601562 469.828125 307.421875 470.46875 308.257812 471.089844 C 309.09375 471.707031 309.945312 472.308594 310.8125 472.886719 C 311.679688 473.464844 312.558594 474.023438 313.453125 474.558594 C 314.347656 475.09375 315.253906 475.609375 316.171875 476.097656 C 317.089844 476.589844 318.019531 477.058594 318.960938 477.503906 C 319.90625 477.949219 320.855469 478.371094 321.820312 478.769531 C 322.78125 479.167969 323.753906 479.542969 324.734375 479.894531 C 325.714844 480.246094 326.703125 480.574219 327.703125 480.875 C 328.699219 481.175781 329.703125 481.457031 330.714844 481.707031 C 331.722656 481.960938 332.738281 482.191406 333.761719 482.394531 C 334.785156 482.597656 335.808594 482.773438 336.839844 482.925781 C 337.871094 483.078125 338.90625 483.207031 339.941406 483.308594 C 340.980469 483.410156 342.015625 483.488281 343.058594 483.539062 C 344.097656 483.589844 345.140625 483.617188 346.183594 483.617188 C 347.425781 483.617188 348.671875 483.585938 349.914062 483.523438 C 351.15625 483.464844 352.398438 483.371094 353.636719 483.25 C 354.875 483.128906 356.109375 482.976562 357.339844 482.792969 C 358.570312 482.613281 359.796875 482.398438 361.019531 482.15625 C 362.238281 481.914062 363.453125 481.644531 364.660156 481.339844 C 365.867188 481.039062 367.066406 480.707031 368.257812 480.347656 C 369.449219 479.988281 370.632812 479.597656 371.804688 479.179688 C 372.976562 478.761719 374.136719 478.3125 375.285156 477.835938 C 376.4375 477.363281 377.574219 476.859375 378.699219 476.328125 C 379.824219 475.796875 380.9375 475.238281 382.035156 474.652344 C 383.132812 474.066406 384.214844 473.453125 385.285156 472.816406 C 386.351562 472.175781 387.40625 471.511719 388.441406 470.820312 C 389.476562 470.132812 390.492188 469.414062 391.492188 468.675781 C 392.496094 467.933594 393.476562 467.171875 394.4375 466.382812 C 395.402344 465.59375 396.34375 464.78125 397.269531 463.949219 C 398.191406 463.113281 399.09375 462.257812 399.976562 461.378906 C 400.855469 460.5 401.714844 459.597656 402.554688 458.679688 C 403.390625 457.757812 404.203125 456.816406 404.996094 455.855469 C 405.785156 454.894531 406.554688 453.914062 407.296875 452.917969 C 408.039062 451.917969 408.757812 450.902344 409.449219 449.867188 C 410.144531 448.835938 410.8125 447.785156 411.453125 446.71875 C 412.09375 445.652344 412.710938 444.570312 413.300781 443.476562 C 413.886719 442.378906 414.449219 441.269531 414.984375 440.144531 C 415.519531 439.019531 416.023438 437.882812 416.503906 436.734375 C 416.984375 435.585938 417.433594 434.425781 417.855469 433.253906 C 418.277344 432.085938 418.667969 430.902344 419.03125 429.714844 C 419.398438 428.523438 419.730469 427.324219 420.035156 426.117188 C 420.34375 424.914062 420.617188 423.699219 420.863281 422.480469 C 421.109375 421.257812 421.324219 420.035156 421.511719 418.804688 C 421.695312 417.570312 421.851562 416.335938 421.976562 415.097656 C 422.101562 413.859375 422.195312 412.621094 422.261719 411.378906 C 422.324219 410.136719 422.359375 408.890625 422.363281 407.648438 C 422.363281 406.125 422.324219 404.601562 422.25 403.082031 C 422.175781 401.5625 422.0625 400.046875 421.914062 398.53125 C 421.765625 397.015625 421.578125 395.507812 421.355469 394 C 421.128906 392.496094 420.871094 390.996094 420.570312 389.503906 C 420.273438 388.011719 419.941406 386.527344 419.570312 385.050781 C 419.199219 383.574219 418.789062 382.105469 418.347656 380.652344 C 417.90625 379.195312 417.425781 377.75 416.910156 376.316406 C 416.398438 374.886719 415.847656 373.464844 415.265625 372.0625 C 414.679688 370.65625 414.0625 369.265625 413.410156 367.890625 C 412.757812 366.515625 412.070312 365.15625 411.351562 363.816406 C 410.632812 362.472656 409.878906 361.152344 409.09375 359.847656 C 408.3125 358.542969 407.496094 357.257812 406.648438 355.992188 C 405.800781 354.730469 404.921875 353.488281 404.011719 352.265625 C 403.101562 351.046875 402.164062 349.847656 401.195312 348.671875 C 400.226562 347.5 399.230469 346.347656 398.207031 345.222656 C 397.183594 344.097656 396.132812 342.996094 395.050781 341.921875 C 393.972656 340.851562 392.871094 339.804688 391.738281 338.785156 C 390.609375 337.765625 389.453125 336.773438 388.273438 335.8125 C 387.097656 334.847656 385.894531 333.914062 384.667969 333.011719 C 383.445312 332.109375 382.199219 331.234375 380.929688 330.394531 C 379.660156 329.550781 378.375 328.742188 377.066406 327.960938 C 375.757812 327.183594 374.429688 326.4375 373.085938 325.726562 C 371.742188 325.011719 370.382812 324.332031 369.003906 323.6875 C 367.625 323.039062 366.230469 322.425781 364.824219 321.851562 C 363.414062 321.273438 361.992188 320.730469 360.558594 320.222656 C 359.125 319.714844 357.675781 319.242188 356.21875 318.804688 C 354.761719 318.371094 353.292969 317.96875 351.816406 317.605469 C 350.335938 317.242188 348.851562 316.914062 347.355469 316.621094 C 345.863281 316.332031 344.363281 316.078125 342.855469 315.859375 C 341.347656 315.644531 339.839844 315.464844 338.324219 315.320312 C 336.808594 315.175781 335.289062 315.074219 333.769531 315.003906 C 332.25 314.9375 330.726562 314.90625 329.207031 314.914062 Z M 358.066406 412.101562 C 358.050781 413.167969 357.933594 414.21875 357.714844 415.261719 C 357.496094 416.300781 357.179688 417.3125 356.761719 418.289062 C 356.34375 419.269531 355.835938 420.199219 355.238281 421.078125 C 354.640625 421.957031 353.960938 422.773438 353.207031 423.519531 C 352.449219 424.265625 351.625 424.933594 350.738281 425.519531 C 349.851562 426.109375 348.914062 426.601562 347.929688 427.007812 C 346.945312 427.410156 345.929688 427.714844 344.886719 427.921875 C 343.84375 428.128906 342.789062 428.230469 341.726562 428.230469 C 341.015625 428.230469 340.3125 428.160156 339.613281 428.023438 C 338.917969 427.882812 338.242188 427.679688 337.582031 427.40625 C 336.925781 427.136719 336.304688 426.800781 335.710938 426.40625 C 335.121094 426.011719 334.574219 425.5625 334.074219 425.0625 C 333.570312 424.558594 333.121094 424.011719 332.726562 423.421875 C 332.332031 422.828125 332 422.207031 331.726562 421.550781 C 331.453125 420.894531 331.25 420.214844 331.109375 419.519531 C 330.972656 418.824219 330.902344 418.117188 330.902344 417.40625 C 330.902344 416.976562 330.945312 416.546875 331.03125 416.125 C 331.113281 415.699219 331.238281 415.289062 331.402344 414.890625 C 331.570312 414.492188 331.773438 414.113281 332.011719 413.753906 C 332.25 413.394531 332.523438 413.0625 332.828125 412.757812 C 333.136719 412.449219 333.46875 412.179688 333.828125 411.9375 C 334.1875 411.699219 334.566406 411.496094 334.964844 411.332031 C 335.363281 411.164062 335.773438 411.039062 336.199219 410.957031 C 336.621094 410.871094 337.050781 410.828125 337.480469 410.828125 C 338.179688 410.828125 338.867188 410.761719 339.550781 410.625 C 340.234375 410.488281 340.898438 410.289062 341.542969 410.023438 C 342.183594 409.753906 342.796875 409.429688 343.375 409.042969 C 343.957031 408.65625 344.492188 408.214844 344.984375 407.722656 C 345.476562 407.230469 345.917969 406.695312 346.304688 406.113281 C 346.691406 405.535156 347.015625 404.921875 347.285156 404.28125 C 347.550781 403.636719 347.75 402.972656 347.886719 402.289062 C 348.023438 401.605469 348.089844 400.917969 348.089844 400.21875 C 348.082031 399.1875 347.925781 398.175781 347.628906 397.1875 C 347.328125 396.199219 346.898438 395.273438 346.335938 394.410156 C 345.769531 393.542969 345.097656 392.777344 344.3125 392.105469 C 343.527344 391.433594 342.667969 390.882812 341.726562 390.457031 C 342.890625 390.796875 344.019531 391.230469 345.117188 391.75 C 346.210938 392.273438 347.261719 392.878906 348.257812 393.566406 C 349.257812 394.257812 350.195312 395.019531 351.070312 395.859375 C 351.945312 396.699219 352.75 397.605469 353.480469 398.574219 C 354.214844 399.542969 354.863281 400.5625 355.429688 401.636719 C 355.996094 402.707031 356.476562 403.820312 356.867188 404.96875 C 357.253906 406.117188 357.550781 407.289062 357.75 408.488281 C 357.953125 409.683594 358.058594 410.890625 358.066406 412.101562 Z M 358.066406 412.101562 " fill-opacity="1" fill-rule="nonzero"/><g clip-path="url(#7b909e431a)"><path fill="#a4e6f0" d="M 327.082031 173.371094 C 327.082031 172.125 327.050781 170.882812 326.992188 169.636719 C 326.929688 168.394531 326.839844 167.152344 326.714844 165.914062 C 326.59375 164.671875 326.441406 163.4375 326.257812 162.207031 C 326.074219 160.972656 325.863281 159.746094 325.617188 158.523438 C 325.375 157.304688 325.101562 156.089844 324.796875 154.878906 C 324.496094 153.671875 324.164062 152.472656 323.800781 151.28125 C 323.4375 150.089844 323.046875 148.90625 322.625 147.734375 C 322.207031 146.5625 321.757812 145.402344 321.28125 144.25 C 320.800781 143.101562 320.296875 141.960938 319.765625 140.835938 C 319.230469 139.710938 318.667969 138.597656 318.082031 137.5 C 317.492188 136.402344 316.878906 135.320312 316.238281 134.253906 C 315.597656 133.183594 314.929688 132.132812 314.234375 131.097656 C 313.542969 130.0625 312.824219 129.046875 312.082031 128.046875 C 311.339844 127.046875 310.570312 126.066406 309.78125 125.105469 C 308.988281 124.144531 308.175781 123.203125 307.335938 122.28125 C 306.5 121.359375 305.640625 120.457031 304.757812 119.578125 C 303.875 118.699219 302.972656 117.839844 302.046875 117.007812 C 301.125 116.171875 300.179688 115.359375 299.214844 114.570312 C 298.253906 113.78125 297.269531 113.019531 296.265625 112.277344 C 295.265625 111.535156 294.246094 110.820312 293.210938 110.132812 C 292.171875 109.441406 291.121094 108.777344 290.050781 108.140625 C 288.980469 107.5 287.894531 106.890625 286.796875 106.304688 C 285.699219 105.71875 284.585938 105.160156 283.457031 104.632812 C 282.328125 104.101562 281.191406 103.597656 280.039062 103.125 C 278.886719 102.648438 277.726562 102.203125 276.550781 101.789062 C 275.378906 101.371094 274.195312 100.980469 273 100.625 C 271.808594 100.265625 270.609375 99.933594 269.398438 99.636719 C 268.191406 99.335938 266.976562 99.066406 265.753906 98.824219 C 264.53125 98.585938 263.304688 98.375 262.070312 98.195312 C 260.839844 98.015625 259.601562 97.867188 258.363281 97.75 C 257.121094 97.628906 255.878906 97.542969 254.636719 97.484375 C 253.390625 97.425781 252.148438 97.398438 250.902344 97.402344 C 249.859375 97.402344 248.820312 97.429688 247.777344 97.480469 C 246.738281 97.53125 245.699219 97.605469 244.660156 97.707031 C 243.625 97.8125 242.589844 97.9375 241.558594 98.089844 C 240.53125 98.246094 239.503906 98.421875 238.480469 98.625 C 237.460938 98.828125 236.445312 99.058594 235.433594 99.308594 C 234.421875 99.5625 233.417969 99.839844 232.421875 100.144531 C 231.425781 100.445312 230.433594 100.773438 229.453125 101.125 C 228.472656 101.476562 227.5 101.847656 226.539062 102.25 C 225.578125 102.648438 224.625 103.070312 223.683594 103.515625 C 222.742188 103.960938 221.808594 104.429688 220.890625 104.917969 C 219.972656 105.410156 219.066406 105.925781 218.171875 106.460938 C 217.277344 106.996094 216.398438 107.550781 215.53125 108.132812 C 214.667969 108.710938 213.816406 109.308594 212.976562 109.929688 C 212.140625 110.550781 211.320312 111.191406 210.515625 111.851562 C 209.710938 112.515625 208.921875 113.195312 208.148438 113.894531 C 207.378906 114.59375 206.621094 115.3125 205.886719 116.046875 C 205.148438 116.785156 204.429688 117.539062 203.730469 118.3125 C 203.03125 119.082031 202.351562 119.871094 201.691406 120.675781 C 201.03125 121.484375 200.386719 122.304688 199.769531 123.140625 C 199.148438 123.976562 198.546875 124.828125 197.96875 125.695312 C 197.390625 126.5625 196.832031 127.441406 196.296875 128.335938 C 195.761719 129.230469 195.25 130.136719 194.757812 131.054688 C 194.265625 131.972656 193.796875 132.902344 193.351562 133.84375 C 192.90625 134.785156 192.484375 135.738281 192.085938 136.703125 C 191.6875 137.664062 191.3125 138.636719 190.960938 139.617188 C 190.609375 140.597656 190.285156 141.585938 189.980469 142.582031 C 189.679688 143.582031 189.402344 144.585938 189.148438 145.59375 C 188.894531 146.605469 188.667969 147.621094 188.464844 148.644531 C 188.261719 149.667969 188.082031 150.691406 187.929688 151.722656 C 187.777344 152.753906 187.648438 153.789062 187.546875 154.824219 C 187.445312 155.859375 187.367188 156.898438 187.316406 157.941406 C 187.265625 158.980469 187.238281 160.023438 187.238281 161.0625 C 187.238281 162.78125 187.324219 164.5 187.492188 166.210938 C 187.660156 167.921875 187.910156 169.617188 188.246094 171.304688 C 188.582031 172.992188 188.996094 174.65625 189.496094 176.304688 C 189.992188 177.949219 190.570312 179.566406 191.226562 181.15625 C 191.882812 182.742188 192.613281 184.296875 193.421875 185.8125 C 194.230469 187.332031 195.113281 188.804688 196.066406 190.234375 C 197.019531 191.667969 198.039062 193.046875 199.125 194.378906 C 200.214844 195.710938 201.367188 196.984375 202.578125 198.203125 C 203.792969 199.421875 205.0625 200.574219 206.386719 201.667969 C 207.714844 202.761719 209.089844 203.789062 210.519531 204.75 C 211.945312 205.707031 213.417969 206.59375 214.929688 207.40625 C 216.445312 208.222656 217.992188 208.960938 219.582031 209.625 C 221.167969 210.285156 222.78125 210.871094 224.425781 211.375 C 226.070312 211.878906 227.734375 212.300781 229.417969 212.644531 C 231.101562 212.984375 232.800781 213.242188 234.511719 213.417969 C 236.222656 213.59375 237.933594 213.683594 239.65625 213.691406 C 241.101562 213.691406 242.542969 213.621094 243.980469 213.476562 C 245.417969 213.335938 246.847656 213.125 248.265625 212.84375 C 249.683594 212.5625 251.085938 212.210938 252.46875 211.789062 C 253.851562 211.371094 255.210938 210.882812 256.546875 210.332031 C 257.882812 209.777344 259.1875 209.160156 260.460938 208.480469 C 261.738281 207.796875 262.976562 207.054688 264.175781 206.253906 C 265.378906 205.449219 266.539062 204.589844 267.65625 203.671875 C 268.773438 202.753906 269.84375 201.785156 270.867188 200.761719 C 271.886719 199.742188 272.855469 198.671875 273.773438 197.554688 C 274.691406 196.4375 275.550781 195.277344 276.355469 194.074219 C 277.15625 192.871094 277.898438 191.632812 278.582031 190.359375 C 279.261719 189.085938 279.878906 187.777344 280.433594 186.441406 C 280.988281 185.109375 281.472656 183.75 281.894531 182.363281 C 282.3125 180.980469 282.664062 179.582031 282.945312 178.164062 C 283.226562 176.746094 283.4375 175.316406 283.582031 173.878906 C 283.722656 172.441406 283.792969 170.996094 283.792969 169.550781 C 283.792969 168.328125 283.734375 167.109375 283.613281 165.890625 C 283.492188 164.675781 283.3125 163.464844 283.074219 162.265625 C 282.835938 161.066406 282.539062 159.882812 282.183594 158.710938 C 281.828125 157.539062 281.417969 156.390625 280.949219 155.257812 C 280.480469 154.128906 279.960938 153.023438 279.382812 151.945312 C 278.808594 150.867188 278.179688 149.820312 277.5 148.800781 C 276.820312 147.785156 276.089844 146.804688 275.316406 145.859375 C 274.539062 144.914062 273.71875 144.007812 272.855469 143.144531 C 271.988281 142.277344 271.085938 141.457031 270.140625 140.683594 C 269.191406 139.90625 268.210938 139.179688 267.195312 138.5 C 266.175781 137.820312 265.128906 137.191406 264.050781 136.613281 C 262.972656 136.039062 261.867188 135.515625 260.738281 135.046875 C 259.609375 134.578125 258.457031 134.167969 257.285156 133.8125 C 256.117188 133.457031 254.929688 133.160156 253.730469 132.921875 C 252.53125 132.683594 251.324219 132.503906 250.105469 132.382812 C 248.890625 132.265625 247.667969 132.203125 246.445312 132.203125 C 245.394531 132.195312 244.34375 132.242188 243.296875 132.339844 C 242.25 132.4375 241.210938 132.585938 240.179688 132.785156 C 239.148438 132.984375 238.128906 133.234375 237.121094 133.535156 C 236.113281 133.835938 235.121094 134.1875 234.148438 134.585938 C 233.175781 134.984375 232.226562 135.429688 231.296875 135.925781 C 230.371094 136.417969 229.46875 136.957031 228.59375 137.539062 C 227.71875 138.121094 226.871094 138.746094 226.058594 139.410156 C 225.246094 140.078125 224.46875 140.78125 223.722656 141.527344 C 222.980469 142.269531 222.277344 143.046875 221.609375 143.863281 C 220.945312 144.675781 220.320312 145.519531 219.738281 146.394531 C 219.152344 147.269531 218.617188 148.171875 218.121094 149.101562 C 217.628906 150.027344 217.183594 150.980469 216.785156 151.953125 C 216.386719 152.925781 216.035156 153.914062 215.734375 154.921875 C 215.433594 155.929688 215.183594 156.949219 214.980469 157.980469 C 214.78125 159.011719 214.632812 160.050781 214.535156 161.101562 C 214.441406 162.148438 214.394531 163.195312 214.402344 164.246094 C 214.402344 165.152344 214.445312 166.050781 214.535156 166.949219 C 214.625 167.851562 214.757812 168.742188 214.933594 169.628906 C 215.109375 170.515625 215.328125 171.390625 215.589844 172.253906 C 215.851562 173.121094 216.15625 173.96875 216.503906 174.804688 C 216.847656 175.640625 217.234375 176.453125 217.660156 177.25 C 218.085938 178.046875 218.550781 178.820312 219.050781 179.574219 C 219.554688 180.324219 220.089844 181.050781 220.664062 181.746094 C 221.238281 182.445312 221.84375 183.113281 222.480469 183.753906 C 223.121094 184.394531 223.789062 185 224.488281 185.570312 C 225.1875 186.144531 225.910156 186.683594 226.664062 187.183594 C 227.414062 187.6875 228.1875 188.152344 228.984375 188.578125 C 229.78125 189.003906 230.597656 189.386719 231.433594 189.734375 C 232.265625 190.078125 233.117188 190.382812 233.980469 190.644531 C 234.84375 190.90625 235.722656 191.128906 236.605469 191.304688 C 237.492188 191.480469 238.386719 191.613281 239.285156 191.699219 C 240.183594 191.789062 241.085938 191.832031 241.988281 191.832031 C 241 191.933594 240.007812 191.933594 239.019531 191.832031 C 237.992188 191.832031 236.96875 191.785156 235.945312 191.683594 C 234.925781 191.582031 233.914062 191.429688 232.90625 191.230469 C 231.898438 191.027344 230.90625 190.777344 229.925781 190.480469 C 228.941406 190.179688 227.980469 189.832031 227.03125 189.4375 C 226.082031 189.042969 225.160156 188.605469 224.253906 188.121094 C 223.351562 187.632812 222.472656 187.105469 221.621094 186.53125 C 220.769531 185.960938 219.949219 185.347656 219.15625 184.695312 C 218.367188 184.039062 217.609375 183.351562 216.886719 182.621094 C 216.160156 181.894531 215.476562 181.132812 214.828125 180.335938 C 214.179688 179.542969 213.574219 178.714844 213.007812 177.859375 C 212.441406 177.003906 211.917969 176.121094 211.4375 175.214844 C 210.957031 174.308594 210.523438 173.378906 210.136719 172.429688 C 209.75 171.480469 209.410156 170.511719 209.117188 169.53125 C 208.824219 168.546875 208.582031 167.550781 208.386719 166.542969 C 208.191406 165.535156 208.046875 164.519531 207.953125 163.5 C 207.859375 162.476562 207.816406 161.453125 207.824219 160.425781 C 207.824219 159.039062 207.890625 157.652344 208.027344 156.265625 C 208.164062 154.882812 208.367188 153.511719 208.640625 152.148438 C 208.910156 150.785156 209.246094 149.4375 209.652344 148.105469 C 210.054688 146.777344 210.523438 145.46875 211.054688 144.1875 C 211.585938 142.902344 212.179688 141.648438 212.835938 140.421875 C 213.492188 139.195312 214.203125 138.003906 214.976562 136.847656 C 215.75 135.691406 216.574219 134.578125 217.457031 133.503906 C 218.339844 132.429688 219.273438 131.398438 220.253906 130.417969 C 221.238281 129.433594 222.265625 128.5 223.339844 127.621094 C 224.414062 126.738281 225.53125 125.910156 226.6875 125.140625 C 227.839844 124.367188 229.03125 123.652344 230.257812 122.996094 C 231.484375 122.34375 232.738281 121.75 234.023438 121.21875 C 235.308594 120.683594 236.613281 120.21875 237.945312 119.8125 C 239.273438 119.410156 240.621094 119.074219 241.984375 118.800781 C 243.347656 118.53125 244.722656 118.328125 246.105469 118.191406 C 247.488281 118.054688 248.875 117.984375 250.265625 117.984375 C 252.058594 117.984375 253.851562 118.074219 255.640625 118.25 C 257.425781 118.425781 259.199219 118.6875 260.960938 119.035156 C 262.722656 119.386719 264.460938 119.820312 266.179688 120.339844 C 267.898438 120.859375 269.589844 121.464844 271.25 122.148438 C 272.910156 122.835938 274.53125 123.601562 276.113281 124.445312 C 277.699219 125.289062 279.238281 126.210938 280.734375 127.203125 C 282.226562 128.199219 283.671875 129.265625 285.058594 130.402344 C 286.449219 131.539062 287.78125 132.742188 289.054688 134.007812 C 290.324219 135.277344 291.53125 136.601562 292.675781 137.988281 C 293.816406 139.375 294.890625 140.8125 295.890625 142.300781 C 296.890625 143.792969 297.816406 145.328125 298.667969 146.910156 C 299.519531 148.492188 300.289062 150.109375 300.980469 151.769531 C 301.671875 153.425781 302.28125 155.113281 302.808594 156.828125 C 303.335938 158.542969 303.777344 160.28125 304.132812 162.042969 C 304.488281 163.804688 304.757812 165.574219 304.941406 167.363281 C 305.125 169.148438 305.21875 170.941406 305.226562 172.734375 C 305.222656 173.898438 305.191406 175.0625 305.128906 176.226562 C 305.070312 177.390625 304.980469 178.550781 304.863281 179.710938 C 304.746094 180.867188 304.601562 182.023438 304.425781 183.175781 C 304.253906 184.328125 304.050781 185.472656 303.820312 186.617188 C 303.589844 187.757812 303.332031 188.890625 303.046875 190.019531 C 302.761719 191.152344 302.445312 192.273438 302.105469 193.386719 C 301.765625 194.5 301.398438 195.605469 301.003906 196.699219 C 300.609375 197.796875 300.1875 198.878906 299.738281 199.957031 C 299.289062 201.03125 298.816406 202.09375 298.316406 203.144531 C 297.816406 204.199219 297.289062 205.238281 296.738281 206.261719 C 296.1875 207.289062 295.613281 208.300781 295.011719 209.296875 C 294.410156 210.296875 293.785156 211.277344 293.136719 212.246094 C 292.488281 213.214844 291.816406 214.164062 291.121094 215.097656 C 290.425781 216.03125 289.707031 216.949219 288.964844 217.847656 C 288.226562 218.746094 287.464844 219.628906 286.679688 220.488281 C 285.898438 221.351562 285.09375 222.191406 284.269531 223.015625 C 283.441406 223.835938 282.597656 224.640625 281.734375 225.421875 C 280.871094 226.203125 279.988281 226.960938 279.085938 227.699219 C 278.183594 228.4375 277.265625 229.152344 276.328125 229.84375 C 275.394531 230.535156 274.441406 231.207031 273.472656 231.851562 C 272.503906 232.496094 271.519531 233.121094 270.519531 233.71875 C 269.519531 234.316406 268.503906 234.886719 267.476562 235.4375 C 266.449219 235.984375 265.410156 236.507812 264.355469 237.003906 C 263.304688 237.5 262.238281 237.972656 261.160156 238.417969 C 260.085938 238.863281 259 239.28125 257.902344 239.671875 C 256.804688 240.0625 255.699219 240.429688 254.585938 240.765625 C 253.46875 241.101562 252.347656 241.414062 251.21875 241.695312 C 250.085938 241.976562 248.953125 242.234375 247.808594 242.460938 C 246.667969 242.6875 245.519531 242.882812 244.367188 243.054688 C 243.214844 243.226562 242.058594 243.367188 240.902344 243.480469 C 239.742188 243.597656 238.582031 243.679688 237.417969 243.738281 C 236.253906 243.796875 235.089844 243.824219 233.925781 243.824219 L 10.898438 243.824219 C 10.199219 243.824219 9.511719 243.890625 8.828125 244.027344 C 8.144531 244.164062 7.480469 244.363281 6.835938 244.632812 C 6.191406 244.898438 5.582031 245.226562 5.003906 245.613281 C 4.421875 246 3.886719 246.4375 3.394531 246.933594 C 2.902344 247.425781 2.460938 247.960938 2.074219 248.539062 C 1.6875 249.117188 1.359375 249.730469 1.09375 250.375 C 0.828125 251.019531 0.625 251.679688 0.492188 252.363281 C 0.355469 253.046875 0.285156 253.738281 0.285156 254.433594 C 0.285156 255.132812 0.355469 255.820312 0.492188 256.503906 C 0.625 257.1875 0.828125 257.851562 1.09375 258.496094 C 1.359375 259.136719 1.6875 259.75 2.074219 260.328125 C 2.460938 260.910156 2.902344 261.445312 3.394531 261.9375 C 3.886719 262.429688 4.421875 262.871094 5.003906 263.257812 C 5.582031 263.644531 6.191406 263.96875 6.835938 264.238281 C 7.480469 264.503906 8.144531 264.703125 8.828125 264.839844 C 9.511719 264.976562 10.199219 265.042969 10.898438 265.042969 L 234.5625 265.042969 C 236.066406 265.042969 237.570312 265.007812 239.074219 264.933594 C 240.578125 264.863281 242.078125 264.75 243.578125 264.605469 C 245.074219 264.457031 246.570312 264.273438 248.058594 264.054688 C 249.546875 263.835938 251.03125 263.582031 252.507812 263.289062 C 253.984375 262.996094 255.453125 262.667969 256.914062 262.304688 C 258.375 261.941406 259.828125 261.542969 261.269531 261.109375 C 262.710938 260.671875 264.140625 260.203125 265.558594 259.699219 C 266.976562 259.195312 268.382812 258.65625 269.773438 258.082031 C 271.164062 257.511719 272.542969 256.90625 273.90625 256.265625 C 275.269531 255.625 276.613281 254.953125 277.945312 254.246094 C 279.273438 253.539062 280.585938 252.800781 281.878906 252.03125 C 283.171875 251.261719 284.445312 250.460938 285.699219 249.628906 C 286.957031 248.796875 288.1875 247.9375 289.402344 247.042969 C 290.613281 246.152344 291.804688 245.230469 292.972656 244.28125 C 294.140625 243.328125 295.28125 242.351562 296.402344 241.34375 C 297.523438 240.339844 298.617188 239.304688 299.6875 238.246094 C 300.753906 237.1875 301.796875 236.101562 302.816406 234.992188 C 303.832031 233.882812 304.820312 232.746094 305.78125 231.585938 C 306.742188 230.429688 307.675781 229.246094 308.578125 228.042969 C 309.480469 226.839844 310.355469 225.613281 311.199219 224.367188 C 312.042969 223.121094 312.855469 221.851562 313.636719 220.566406 C 314.417969 219.28125 315.167969 217.976562 315.886719 216.652344 C 316.601562 215.328125 317.289062 213.988281 317.941406 212.632812 C 318.59375 211.277344 319.210938 209.90625 319.796875 208.519531 C 320.382812 207.132812 320.933594 205.730469 321.453125 204.316406 C 321.96875 202.902344 322.453125 201.476562 322.902344 200.039062 C 323.347656 198.601562 323.761719 197.15625 324.136719 195.699219 C 324.515625 194.242188 324.855469 192.777344 325.160156 191.300781 C 325.46875 189.828125 325.738281 188.347656 325.96875 186.859375 C 326.203125 185.371094 326.398438 183.878906 326.558594 182.382812 C 326.722656 180.886719 326.84375 179.386719 326.933594 177.882812 C 327.019531 176.382812 327.070312 174.878906 327.082031 173.371094 Z M 242.199219 169.765625 C 241.777344 169.777344 241.359375 169.75 240.945312 169.679688 C 240.527344 169.609375 240.125 169.496094 239.730469 169.339844 C 239.335938 169.183594 238.964844 168.992188 238.609375 168.761719 C 238.257812 168.53125 237.933594 168.265625 237.632812 167.964844 C 237.335938 167.667969 237.070312 167.339844 236.839844 166.988281 C 236.605469 166.636719 236.414062 166.261719 236.257812 165.867188 C 236.105469 165.476562 235.992188 165.070312 235.917969 164.65625 C 235.847656 164.238281 235.820312 163.820312 235.835938 163.398438 C 235.835938 162.6875 235.902344 161.984375 236.042969 161.285156 C 236.179688 160.589844 236.386719 159.914062 236.660156 159.257812 C 236.929688 158.601562 237.265625 157.976562 237.660156 157.386719 C 238.054688 156.792969 238.503906 156.25 239.003906 155.746094 C 239.507812 155.242188 240.054688 154.792969 240.644531 154.398438 C 241.234375 154.003906 241.859375 153.671875 242.515625 153.398438 C 243.171875 153.128906 243.847656 152.921875 244.546875 152.785156 C 245.242188 152.644531 245.945312 152.574219 246.65625 152.574219 C 247.1875 152.574219 247.710938 152.601562 248.238281 152.652344 C 248.765625 152.707031 249.285156 152.78125 249.804688 152.886719 C 250.320312 152.988281 250.832031 153.117188 251.339844 153.269531 C 251.84375 153.421875 252.339844 153.601562 252.828125 153.804688 C 253.316406 154.003906 253.792969 154.230469 254.261719 154.480469 C 254.726562 154.730469 255.179688 155 255.617188 155.292969 C 256.054688 155.585938 256.480469 155.902344 256.886719 156.238281 C 257.296875 156.570312 257.6875 156.925781 258.0625 157.300781 C 258.433594 157.671875 258.789062 158.0625 259.125 158.472656 C 259.460938 158.878906 259.773438 159.304688 260.066406 159.742188 C 260.359375 160.183594 260.632812 160.636719 260.878906 161.101562 C 261.128906 161.566406 261.355469 162.042969 261.558594 162.53125 C 261.757812 163.019531 261.9375 163.515625 262.089844 164.023438 C 262.242188 164.527344 262.371094 165.039062 262.476562 165.558594 C 262.578125 166.074219 262.65625 166.597656 262.707031 167.121094 C 262.757812 167.648438 262.785156 168.175781 262.785156 168.703125 C 262.761719 169.902344 262.644531 171.089844 262.433594 172.269531 C 262.222656 173.445312 261.917969 174.601562 261.519531 175.730469 C 261.125 176.863281 260.640625 177.953125 260.070312 179.007812 C 259.5 180.058594 258.847656 181.0625 258.117188 182.011719 C 257.386719 182.960938 256.585938 183.84375 255.714844 184.664062 C 254.839844 185.488281 253.910156 186.234375 252.917969 186.90625 C 251.925781 187.578125 250.886719 188.167969 249.800781 188.671875 C 248.714844 189.179688 247.597656 189.597656 246.445312 189.925781 C 247.410156 189.535156 248.296875 189.007812 249.101562 188.34375 C 249.90625 187.683594 250.59375 186.917969 251.164062 186.042969 C 251.730469 185.171875 252.15625 184.234375 252.4375 183.230469 C 252.71875 182.226562 252.84375 181.203125 252.8125 180.164062 C 252.800781 179.5 252.726562 178.847656 252.589844 178.199219 C 252.457031 177.550781 252.261719 176.917969 252.011719 176.308594 C 251.757812 175.695312 251.453125 175.113281 251.089844 174.558594 C 250.726562 174.003906 250.316406 173.488281 249.859375 173.011719 C 249.402344 172.535156 248.902344 172.101562 248.363281 171.71875 C 247.824219 171.332031 247.257812 171.003906 246.65625 170.726562 C 246.054688 170.445312 245.433594 170.226562 244.792969 170.066406 C 244.148438 169.90625 243.5 169.804688 242.835938 169.765625 Z M 242.199219 169.765625 " fill-opacity="1" fill-rule="nonzero"/></g></svg>