<svg xmlns="http://www.w3.org/2000/svg" xmlns:xlink="http://www.w3.org/1999/xlink" width="720" zoomAndPan="magnify" viewBox="0 0 540 540.000001" height="720" preserveAspectRatio="xMidYMid meet" version="1.0"><defs><clipPath id="731ad873bb"><path d="M 143 146.492188 L 423.921875 146.492188 L 423.921875 288 L 143 288 Z M 143 146.492188 " clip-rule="nonzero"/></clipPath><clipPath id="6673f98ac2"><path d="M 116.238281 171 L 303 171 L 303 267 L 116.238281 267 Z M 116.238281 171 " clip-rule="nonzero"/></clipPath></defs><g clip-path="url(#731ad873bb)"><path fill="#a4e6f0" d="M 360.4375 146.25 C 358.734375 146.25 357.035156 146.335938 355.34375 146.5 C 353.648438 146.667969 351.964844 146.917969 350.296875 147.25 C 348.625 147.578125 346.976562 147.992188 345.347656 148.484375 C 343.71875 148.980469 342.117188 149.550781 340.542969 150.203125 C 338.96875 150.851562 337.429688 151.578125 335.929688 152.378906 C 334.425781 153.179688 332.96875 154.054688 331.550781 155 C 330.136719 155.945312 328.769531 156.957031 327.453125 158.035156 C 326.132812 159.113281 324.875 160.253906 323.667969 161.457031 C 322.460938 162.660156 321.320312 163.917969 320.238281 165.230469 C 319.15625 166.546875 318.140625 167.910156 317.191406 169.324219 C 316.246094 170.738281 315.367188 172.195312 314.5625 173.695312 C 313.757812 175.195312 313.027344 176.734375 312.375 178.304688 C 311.71875 179.875 311.144531 181.476562 310.648438 183.105469 C 310.148438 184.734375 309.734375 186.382812 309.398438 188.050781 C 309.0625 189.71875 308.808594 191.402344 308.640625 193.09375 C 308.46875 194.789062 308.382812 196.488281 308.378906 198.191406 C 308.382812 199.59375 308.453125 200.992188 308.59375 202.386719 C 308.734375 203.78125 308.945312 205.167969 309.21875 206.542969 C 309.496094 207.917969 309.839844 209.277344 310.25 210.617188 C 310.660156 211.957031 311.132812 213.277344 311.671875 214.570312 C 312.210938 215.867188 312.8125 217.132812 313.472656 218.371094 C 314.136719 219.605469 314.855469 220.804688 315.636719 221.972656 C 316.417969 223.136719 317.253906 224.261719 318.144531 225.347656 C 319.03125 226.429688 319.972656 227.46875 320.964844 228.460938 C 321.957031 229.453125 322.996094 230.394531 324.078125 231.28125 C 325.164062 232.171875 326.289062 233.007812 327.453125 233.789062 C 328.617188 234.566406 329.820312 235.289062 331.054688 235.953125 C 332.292969 236.613281 333.558594 237.214844 334.851562 237.753906 C 336.148438 238.292969 337.464844 238.765625 338.808594 239.175781 C 340.148438 239.585938 341.507812 239.929688 342.882812 240.203125 C 344.257812 240.480469 345.644531 240.691406 347.039062 240.832031 C 348.433594 240.972656 349.832031 241.042969 351.234375 241.046875 C 352.398438 241.046875 353.558594 240.992188 354.710938 240.878906 C 355.867188 240.761719 357.015625 240.59375 358.15625 240.367188 C 359.296875 240.140625 360.421875 239.859375 361.535156 239.519531 C 362.644531 239.183594 363.738281 238.792969 364.8125 238.347656 C 365.882812 237.902344 366.933594 237.40625 367.957031 236.859375 C 368.984375 236.3125 369.976562 235.714844 370.945312 235.070312 C 371.910156 234.425781 372.84375 233.734375 373.738281 232.996094 C 374.636719 232.257812 375.496094 231.480469 376.320312 230.660156 C 377.140625 229.835938 377.921875 228.976562 378.65625 228.078125 C 379.394531 227.179688 380.085938 226.25 380.730469 225.28125 C 381.375 224.316406 381.972656 223.320312 382.519531 222.296875 C 383.066406 221.273438 383.5625 220.222656 384.007812 219.148438 C 384.453125 218.078125 384.84375 216.984375 385.183594 215.871094 C 385.519531 214.761719 385.800781 213.636719 386.027344 212.496094 C 386.253906 211.355469 386.425781 210.207031 386.539062 209.050781 C 386.652344 207.894531 386.710938 206.738281 386.710938 205.574219 C 386.710938 204.605469 386.660156 203.640625 386.566406 202.679688 C 386.472656 201.714844 386.332031 200.761719 386.140625 199.8125 C 385.953125 198.863281 385.71875 197.925781 385.4375 197 C 385.15625 196.074219 384.832031 195.164062 384.460938 194.269531 C 384.089844 193.375 383.675781 192.503906 383.222656 191.648438 C 382.765625 190.796875 382.269531 189.96875 381.730469 189.164062 C 381.191406 188.359375 380.617188 187.582031 380.003906 186.835938 C 379.390625 186.085938 378.742188 185.371094 378.058594 184.6875 C 377.371094 184.003906 376.65625 183.351562 375.910156 182.738281 C 375.160156 182.125 374.386719 181.550781 373.582031 181.011719 C 372.777344 180.476562 371.945312 179.976562 371.09375 179.523438 C 370.242188 179.066406 369.367188 178.652344 368.472656 178.28125 C 367.578125 177.914062 366.667969 177.585938 365.742188 177.304688 C 364.816406 177.023438 363.878906 176.789062 362.929688 176.601562 C 361.984375 176.414062 361.027344 176.269531 360.0625 176.175781 C 359.101562 176.082031 358.136719 176.035156 357.167969 176.035156 C 356.351562 176.03125 355.539062 176.066406 354.726562 176.140625 C 353.914062 176.21875 353.109375 176.335938 352.308594 176.488281 C 351.507812 176.644531 350.71875 176.839844 349.9375 177.074219 C 349.15625 177.308594 348.386719 177.578125 347.632812 177.886719 C 346.878906 178.199219 346.140625 178.542969 345.421875 178.925781 C 344.699219 179.308594 344 179.722656 343.320312 180.175781 C 342.640625 180.625 341.988281 181.109375 341.355469 181.625 C 340.722656 182.140625 340.117188 182.683594 339.539062 183.261719 C 338.960938 183.835938 338.414062 184.4375 337.894531 185.066406 C 337.375 185.695312 336.890625 186.347656 336.4375 187.027344 C 335.980469 187.703125 335.5625 188.402344 335.175781 189.121094 C 334.789062 189.839844 334.441406 190.574219 334.128906 191.328125 C 333.816406 192.078125 333.539062 192.847656 333.304688 193.625 C 333.066406 194.40625 332.867188 195.195312 332.707031 195.996094 C 332.546875 196.796875 332.429688 197.601562 332.347656 198.414062 C 332.269531 199.222656 332.226562 200.039062 332.226562 200.851562 C 332.226562 201.546875 332.261719 202.238281 332.328125 202.929688 C 332.398438 203.621094 332.5 204.304688 332.636719 204.988281 C 332.769531 205.667969 332.9375 206.339844 333.140625 207.003906 C 333.339844 207.667969 333.574219 208.320312 333.839844 208.960938 C 334.105469 209.601562 334.402344 210.230469 334.730469 210.839844 C 335.058594 211.453125 335.414062 212.046875 335.796875 212.625 C 336.183594 213.199219 336.597656 213.757812 337.039062 214.292969 C 337.476562 214.832031 337.941406 215.34375 338.433594 215.835938 C 338.925781 216.324219 339.4375 216.789062 339.972656 217.230469 C 340.511719 217.671875 341.066406 218.085938 341.644531 218.46875 C 342.222656 218.855469 342.816406 219.210938 343.425781 219.539062 C 344.039062 219.867188 344.667969 220.160156 345.308594 220.425781 C 345.949219 220.691406 346.601562 220.925781 347.265625 221.128906 C 347.929688 221.328125 348.601562 221.496094 349.28125 221.632812 C 349.960938 221.769531 350.648438 221.871094 351.339844 221.9375 C 352.027344 222.007812 352.722656 222.039062 353.414062 222.039062 C 353.808594 222.03125 354.203125 221.988281 354.589844 221.90625 C 354.972656 221.820312 355.351562 221.703125 355.714844 221.546875 C 356.078125 221.394531 356.421875 221.207031 356.75 220.984375 C 357.078125 220.761719 357.382812 220.511719 357.660156 220.234375 C 357.941406 219.953125 358.191406 219.648438 358.414062 219.320312 C 358.632812 218.996094 358.820312 218.648438 358.976562 218.285156 C 359.132812 217.921875 359.25 217.546875 359.332031 217.160156 C 359.414062 216.773438 359.460938 216.382812 359.46875 215.988281 C 359.46875 215.589844 359.429688 215.195312 359.351562 214.804688 C 359.273438 214.414062 359.160156 214.039062 359.007812 213.671875 C 358.855469 213.304688 358.667969 212.953125 358.449219 212.625 C 358.226562 212.292969 357.976562 211.988281 357.695312 211.707031 C 357.414062 211.425781 357.109375 211.175781 356.777344 210.953125 C 356.449219 210.734375 356.097656 210.546875 355.730469 210.394531 C 355.363281 210.242188 354.984375 210.128906 354.597656 210.050781 C 354.207031 209.972656 353.8125 209.933594 353.414062 209.933594 C 352.820312 209.925781 352.234375 209.859375 351.652344 209.738281 C 351.070312 209.617188 350.507812 209.441406 349.957031 209.210938 C 349.410156 208.980469 348.890625 208.699219 348.398438 208.367188 C 347.90625 208.035156 347.449219 207.660156 347.027344 207.238281 C 346.609375 206.820312 346.234375 206.363281 345.902344 205.871094 C 345.570312 205.375 345.289062 204.855469 345.058594 204.308594 C 344.828125 203.761719 344.652344 203.199219 344.527344 202.617188 C 344.40625 202.035156 344.34375 201.445312 344.335938 200.851562 C 344.34375 200.015625 344.433594 199.1875 344.601562 198.367188 C 344.773438 197.546875 345.019531 196.75 345.347656 195.980469 C 345.671875 195.207031 346.070312 194.476562 346.539062 193.78125 C 347.007812 193.085938 347.542969 192.445312 348.136719 191.855469 C 348.730469 191.265625 349.378906 190.742188 350.074219 190.277344 C 350.773438 189.816406 351.511719 189.425781 352.285156 189.105469 C 353.058594 188.789062 353.859375 188.546875 354.679688 188.382812 C 355.5 188.222656 356.332031 188.140625 357.167969 188.140625 C 357.738281 188.144531 358.304688 188.175781 358.875 188.234375 C 359.441406 188.292969 360.003906 188.382812 360.5625 188.496094 C 361.121094 188.609375 361.671875 188.75 362.214844 188.917969 C 362.761719 189.085938 363.296875 189.28125 363.820312 189.5 C 364.347656 189.71875 364.859375 189.964844 365.363281 190.234375 C 365.863281 190.503906 366.351562 190.796875 366.824219 191.117188 C 367.300781 191.433594 367.753906 191.773438 368.195312 192.136719 C 368.636719 192.496094 369.058594 192.878906 369.460938 193.28125 C 369.863281 193.683594 370.246094 194.105469 370.609375 194.546875 C 370.96875 194.988281 371.308594 195.445312 371.628906 195.917969 C 371.945312 196.390625 372.238281 196.878906 372.507812 197.378906 C 372.777344 197.882812 373.023438 198.394531 373.242188 198.921875 C 373.464844 199.449219 373.65625 199.984375 373.824219 200.527344 C 373.992188 201.070312 374.132812 201.625 374.246094 202.183594 C 374.363281 202.742188 374.449219 203.304688 374.507812 203.871094 C 374.566406 204.4375 374.597656 205.003906 374.601562 205.574219 C 374.597656 206.339844 374.558594 207.101562 374.480469 207.863281 C 374.402344 208.621094 374.285156 209.375 374.132812 210.125 C 373.980469 210.875 373.792969 211.613281 373.570312 212.34375 C 373.34375 213.074219 373.085938 213.792969 372.792969 214.5 C 372.496094 215.203125 372.167969 215.894531 371.808594 216.566406 C 371.445312 217.238281 371.054688 217.894531 370.628906 218.527344 C 370.203125 219.164062 369.746094 219.777344 369.261719 220.367188 C 368.777344 220.957031 368.261719 221.523438 367.722656 222.0625 C 367.183594 222.601562 366.617188 223.117188 366.027344 223.601562 C 365.4375 224.085938 364.824219 224.542969 364.1875 224.964844 C 363.554688 225.390625 362.898438 225.785156 362.226562 226.148438 C 361.554688 226.507812 360.863281 226.835938 360.160156 227.128906 C 359.453125 227.425781 358.734375 227.683594 358.003906 227.90625 C 357.273438 228.132812 356.535156 228.320312 355.785156 228.472656 C 355.039062 228.625 354.28125 228.738281 353.523438 228.816406 C 352.761719 228.894531 352 228.9375 351.234375 228.941406 C 350.230469 228.941406 349.222656 228.890625 348.222656 228.792969 C 347.21875 228.695312 346.222656 228.546875 345.238281 228.351562 C 344.25 228.152344 343.273438 227.910156 342.308594 227.617188 C 341.34375 227.324219 340.398438 226.984375 339.46875 226.601562 C 338.539062 226.214844 337.628906 225.785156 336.738281 225.308594 C 335.851562 224.835938 334.988281 224.316406 334.152344 223.757812 C 333.3125 223.199219 332.503906 222.601562 331.726562 221.960938 C 330.949219 221.320312 330.203125 220.648438 329.492188 219.933594 C 328.777344 219.222656 328.101562 218.476562 327.464844 217.699219 C 326.824219 216.917969 326.226562 216.113281 325.667969 215.273438 C 325.105469 214.4375 324.589844 213.574219 324.117188 212.6875 C 323.640625 211.796875 323.210938 210.886719 322.824219 209.957031 C 322.441406 209.027344 322.101562 208.082031 321.808594 207.117188 C 321.515625 206.152344 321.273438 205.175781 321.074219 204.1875 C 320.878906 203.199219 320.730469 202.207031 320.632812 201.203125 C 320.535156 200.203125 320.484375 199.195312 320.484375 198.191406 C 320.488281 196.882812 320.554688 195.582031 320.6875 194.28125 C 320.820312 192.980469 321.015625 191.691406 321.273438 190.414062 C 321.53125 189.132812 321.851562 187.867188 322.234375 186.617188 C 322.613281 185.371094 323.058594 184.144531 323.558594 182.9375 C 324.0625 181.730469 324.621094 180.554688 325.242188 179.402344 C 325.859375 178.253906 326.53125 177.136719 327.257812 176.050781 C 327.988281 174.964844 328.765625 173.921875 329.597656 172.914062 C 330.425781 171.902344 331.304688 170.9375 332.230469 170.015625 C 333.152344 169.09375 334.121094 168.21875 335.132812 167.394531 C 336.144531 166.566406 337.191406 165.789062 338.277344 165.066406 C 339.363281 164.339844 340.484375 163.671875 341.636719 163.058594 C 342.789062 162.441406 343.96875 161.886719 345.175781 161.386719 C 346.382812 160.886719 347.609375 160.449219 348.859375 160.070312 C 350.109375 159.691406 351.375 159.375 352.65625 159.121094 C 353.9375 158.867188 355.230469 158.675781 356.527344 158.550781 C 357.828125 158.421875 359.132812 158.359375 360.4375 158.359375 C 362.117188 158.359375 363.796875 158.441406 365.46875 158.605469 C 367.140625 158.769531 368.804688 159.015625 370.453125 159.34375 C 372.101562 159.671875 373.730469 160.082031 375.339844 160.566406 C 376.949219 161.054688 378.527344 161.621094 380.082031 162.265625 C 381.636719 162.910156 383.152344 163.625 384.636719 164.417969 C 386.117188 165.210938 387.558594 166.074219 388.957031 167.007812 C 390.355469 167.941406 391.703125 168.945312 393.003906 170.011719 C 394.300781 171.078125 395.546875 172.203125 396.734375 173.394531 C 397.925781 174.582031 399.050781 175.824219 400.117188 177.125 C 401.183594 178.425781 402.183594 179.773438 403.121094 181.171875 C 404.054688 182.570312 404.917969 184.011719 405.710938 185.492188 C 406.5 186.976562 407.21875 188.492188 407.863281 190.046875 C 408.507812 191.601562 409.070312 193.179688 409.558594 194.789062 C 410.046875 196.398438 410.457031 198.027344 410.785156 199.675781 C 411.113281 201.324219 411.359375 202.988281 411.523438 204.660156 C 411.6875 206.332031 411.769531 208.011719 411.769531 209.691406 C 411.769531 210.765625 411.746094 211.84375 411.691406 212.917969 C 411.636719 213.992188 411.558594 215.0625 411.453125 216.136719 C 411.347656 217.207031 411.21875 218.273438 411.058594 219.335938 C 410.902344 220.402344 410.71875 221.460938 410.507812 222.515625 C 410.296875 223.570312 410.0625 224.621094 409.800781 225.664062 C 409.539062 226.707031 409.253906 227.746094 408.941406 228.773438 C 408.628906 229.804688 408.289062 230.824219 407.925781 231.839844 C 407.566406 232.851562 407.179688 233.855469 406.765625 234.847656 C 406.355469 235.84375 405.917969 236.828125 405.457031 237.800781 C 405 238.773438 404.515625 239.730469 404.007812 240.679688 C 403.5 241.628906 402.96875 242.566406 402.417969 243.488281 C 401.863281 244.410156 401.289062 245.320312 400.691406 246.214844 C 400.09375 247.109375 399.472656 247.988281 398.832031 248.851562 C 398.191406 249.71875 397.53125 250.566406 396.847656 251.398438 C 396.164062 252.226562 395.464844 253.042969 394.742188 253.839844 C 394.019531 254.636719 393.277344 255.417969 392.515625 256.175781 C 391.753906 256.9375 390.976562 257.679688 390.179688 258.402344 C 389.382812 259.125 388.566406 259.828125 387.734375 260.507812 C 386.902344 261.191406 386.054688 261.855469 385.191406 262.496094 C 384.328125 263.136719 383.449219 263.753906 382.554688 264.351562 C 381.660156 264.949219 380.75 265.527344 379.828125 266.078125 C 378.90625 266.632812 377.96875 267.164062 377.019531 267.667969 C 376.070312 268.175781 375.109375 268.660156 374.136719 269.121094 C 373.164062 269.582031 372.183594 270.015625 371.1875 270.425781 C 370.195312 270.839844 369.191406 271.226562 368.175781 271.589844 C 367.164062 271.953125 366.144531 272.289062 365.113281 272.601562 C 364.082031 272.914062 363.046875 273.199219 362.003906 273.460938 C 360.960938 273.722656 359.910156 273.957031 358.855469 274.167969 C 357.800781 274.378906 356.742188 274.5625 355.675781 274.71875 C 354.613281 274.878906 353.542969 275.011719 352.472656 275.117188 C 351.402344 275.222656 350.332031 275.300781 349.253906 275.351562 C 348.179688 275.40625 347.105469 275.433594 346.03125 275.433594 L 149.535156 275.433594 C 149.140625 275.441406 148.746094 275.484375 148.363281 275.566406 C 147.976562 275.648438 147.597656 275.769531 147.234375 275.925781 C 146.871094 276.078125 146.527344 276.265625 146.199219 276.488281 C 145.871094 276.710938 145.566406 276.960938 145.289062 277.238281 C 145.007812 277.519531 144.757812 277.824219 144.535156 278.148438 C 144.316406 278.476562 144.128906 278.824219 143.972656 279.1875 C 143.816406 279.550781 143.699219 279.925781 143.617188 280.3125 C 143.535156 280.699219 143.488281 281.089844 143.480469 281.484375 C 143.480469 281.882812 143.519531 282.277344 143.597656 282.667969 C 143.675781 283.054688 143.789062 283.433594 143.941406 283.800781 C 144.09375 284.167969 144.28125 284.519531 144.5 284.847656 C 144.722656 285.179688 144.972656 285.484375 145.253906 285.765625 C 145.535156 286.046875 145.839844 286.296875 146.171875 286.519531 C 146.5 286.738281 146.851562 286.925781 147.21875 287.078125 C 147.585938 287.230469 147.964844 287.34375 148.351562 287.421875 C 148.742188 287.5 149.136719 287.539062 149.535156 287.539062 L 346.03125 287.539062 C 347.304688 287.539062 348.578125 287.507812 349.851562 287.445312 C 351.121094 287.382812 352.390625 287.289062 353.660156 287.164062 C 354.929688 287.039062 356.191406 286.882812 357.453125 286.695312 C 358.710938 286.507812 359.96875 286.292969 361.21875 286.042969 C 362.464844 285.792969 363.710938 285.515625 364.945312 285.207031 C 366.179688 284.894531 367.410156 284.558594 368.628906 284.1875 C 369.847656 283.816406 371.054688 283.417969 372.257812 282.988281 C 373.457031 282.558594 374.644531 282.101562 375.820312 281.613281 C 376.996094 281.125 378.164062 280.609375 379.3125 280.066406 C 380.464844 279.519531 381.601562 278.949219 382.726562 278.347656 C 383.851562 277.746094 384.957031 277.117188 386.050781 276.464844 C 387.144531 275.808594 388.21875 275.128906 389.28125 274.417969 C 390.339844 273.710938 391.378906 272.976562 392.402344 272.21875 C 393.425781 271.460938 394.429688 270.675781 395.414062 269.867188 C 396.402344 269.058594 397.363281 268.226562 398.308594 267.371094 C 399.253906 266.515625 400.175781 265.640625 401.078125 264.738281 C 401.976562 263.835938 402.855469 262.914062 403.710938 261.96875 C 404.566406 261.027344 405.398438 260.0625 406.207031 259.078125 C 407.015625 258.09375 407.796875 257.089844 408.558594 256.066406 C 409.316406 255.042969 410.050781 254 410.757812 252.941406 C 411.464844 251.882812 412.148438 250.804688 412.800781 249.714844 C 413.457031 248.621094 414.085938 247.511719 414.683594 246.386719 C 415.285156 245.265625 415.859375 244.128906 416.402344 242.976562 C 416.949219 241.824219 417.464844 240.660156 417.953125 239.480469 C 418.4375 238.304688 418.898438 237.117188 419.328125 235.917969 C 419.757812 234.71875 420.15625 233.507812 420.527344 232.289062 C 420.894531 231.070312 421.234375 229.84375 421.542969 228.605469 C 421.855469 227.371094 422.132812 226.128906 422.382812 224.878906 C 422.628906 223.628906 422.847656 222.375 423.035156 221.113281 C 423.222656 219.855469 423.378906 218.589844 423.503906 217.320312 C 423.628906 216.054688 423.722656 214.785156 423.785156 213.511719 C 423.847656 212.238281 423.878906 210.964844 423.878906 209.691406 C 423.875 207.613281 423.769531 205.542969 423.5625 203.476562 C 423.355469 201.410156 423.046875 199.359375 422.636719 197.324219 C 422.230469 195.285156 421.722656 193.277344 421.117188 191.289062 C 420.511719 189.300781 419.8125 187.351562 419.015625 185.433594 C 418.21875 183.515625 417.332031 181.640625 416.351562 179.808594 C 415.371094 177.980469 414.304688 176.199219 413.148438 174.472656 C 411.996094 172.746094 410.757812 171.082031 409.441406 169.476562 C 408.121094 167.871094 406.730469 166.335938 405.261719 164.867188 C 403.792969 163.398438 402.253906 162.007812 400.652344 160.6875 C 399.046875 159.371094 397.378906 158.132812 395.652344 156.980469 C 393.929688 155.824219 392.148438 154.757812 390.320312 153.777344 C 388.488281 152.796875 386.613281 151.910156 384.695312 151.113281 C 382.777344 150.316406 380.824219 149.613281 378.839844 149.007812 C 376.851562 148.40625 374.839844 147.898438 372.804688 147.488281 C 370.769531 147.082031 368.71875 146.773438 366.652344 146.566406 C 364.585938 146.359375 362.515625 146.253906 360.4375 146.25 Z M 360.4375 146.25 " fill-opacity="1" fill-rule="nonzero"/></g><path fill="#a4e6f0" d="M 303.777344 295.410156 L 176.046875 295.410156 C 175.652344 295.417969 175.261719 295.460938 174.875 295.542969 C 174.488281 295.625 174.113281 295.746094 173.75 295.902344 C 173.386719 296.054688 173.039062 296.242188 172.714844 296.464844 C 172.386719 296.6875 172.082031 296.9375 171.800781 297.214844 C 171.523438 297.496094 171.273438 297.800781 171.050781 298.125 C 170.828125 298.453125 170.640625 298.800781 170.488281 299.164062 C 170.332031 299.527344 170.214844 299.902344 170.128906 300.289062 C 170.046875 300.675781 170.003906 301.066406 169.996094 301.460938 C 169.996094 301.859375 170.035156 302.253906 170.109375 302.644531 C 170.1875 303.03125 170.304688 303.410156 170.457031 303.777344 C 170.609375 304.144531 170.792969 304.496094 171.015625 304.824219 C 171.234375 305.15625 171.488281 305.460938 171.769531 305.742188 C 172.050781 306.023438 172.355469 306.273438 172.683594 306.496094 C 173.015625 306.714844 173.363281 306.902344 173.730469 307.054688 C 174.097656 307.207031 174.476562 307.320312 174.867188 307.398438 C 175.257812 307.476562 175.652344 307.515625 176.046875 307.515625 L 303.777344 307.515625 C 305.109375 307.519531 306.4375 307.589844 307.761719 307.722656 C 309.085938 307.855469 310.398438 308.054688 311.703125 308.316406 C 313.007812 308.578125 314.296875 308.90625 315.570312 309.292969 C 316.84375 309.683594 318.097656 310.132812 319.324219 310.644531 C 320.554688 311.15625 321.753906 311.726562 322.929688 312.355469 C 324.101562 312.984375 325.242188 313.667969 326.347656 314.40625 C 327.453125 315.148438 328.523438 315.941406 329.550781 316.785156 C 330.578125 317.632812 331.566406 318.523438 332.507812 319.464844 C 333.449219 320.40625 334.339844 321.390625 335.183594 322.421875 C 336.03125 323.449219 336.824219 324.515625 337.5625 325.621094 C 338.304688 326.730469 338.988281 327.871094 339.617188 329.042969 C 340.246094 330.214844 340.816406 331.417969 341.328125 332.644531 C 341.839844 333.875 342.289062 335.125 342.675781 336.398438 C 343.066406 337.671875 343.390625 338.960938 343.65625 340.265625 C 343.917969 341.570312 344.117188 342.886719 344.25 344.210938 C 344.382812 345.535156 344.453125 346.863281 344.457031 348.195312 C 344.453125 349.21875 344.398438 350.242188 344.292969 351.261719 C 344.191406 352.277344 344.035156 353.289062 343.832031 354.296875 C 343.628906 355.300781 343.378906 356.289062 343.078125 357.269531 C 342.777344 358.25 342.429688 359.210938 342.035156 360.15625 C 341.640625 361.101562 341.199219 362.027344 340.714844 362.929688 C 340.230469 363.832031 339.699219 364.707031 339.128906 365.558594 C 338.558594 366.40625 337.945312 367.226562 337.296875 368.019531 C 336.644531 368.808594 335.953125 369.566406 335.230469 370.289062 C 334.503906 371.011719 333.742188 371.699219 332.949219 372.347656 C 332.15625 372.996094 331.335938 373.601562 330.484375 374.171875 C 329.628906 374.738281 328.75 375.265625 327.847656 375.746094 C 326.941406 376.226562 326.019531 376.664062 325.070312 377.054688 C 324.125 377.445312 323.160156 377.789062 322.179688 378.085938 C 321.199219 378.382812 320.207031 378.632812 319.203125 378.832031 C 318.195312 379.03125 317.183594 379.179688 316.164062 379.28125 C 315.144531 379.378906 314.125 379.429688 313.097656 379.429688 C 312.304688 379.429688 311.515625 379.390625 310.726562 379.3125 C 309.9375 379.238281 309.152344 379.121094 308.375 378.964844 C 307.597656 378.8125 306.828125 378.617188 306.070312 378.386719 C 305.3125 378.15625 304.566406 377.890625 303.832031 377.585938 C 303.101562 377.285156 302.382812 376.945312 301.683594 376.570312 C 300.984375 376.199219 300.304688 375.789062 299.644531 375.351562 C 298.988281 374.910156 298.351562 374.4375 297.738281 373.933594 C 297.125 373.429688 296.539062 372.898438 295.976562 372.339844 C 295.417969 371.777344 294.882812 371.191406 294.382812 370.578125 C 293.878906 369.964844 293.40625 369.328125 292.964844 368.667969 C 292.523438 368.011719 292.117188 367.332031 291.746094 366.632812 C 291.371094 365.933594 291.03125 365.214844 290.726562 364.484375 C 290.425781 363.75 290.15625 363.003906 289.925781 362.246094 C 289.699219 361.488281 289.503906 360.71875 289.351562 359.941406 C 289.195312 359.164062 289.078125 358.378906 289 357.589844 C 288.925781 356.800781 288.886719 356.011719 288.886719 355.214844 C 288.890625 354.632812 288.921875 354.050781 288.984375 353.46875 C 289.042969 352.886719 289.132812 352.3125 289.25 351.738281 C 289.367188 351.164062 289.511719 350.601562 289.683594 350.042969 C 289.859375 349.484375 290.058594 348.9375 290.285156 348.398438 C 290.511719 347.859375 290.761719 347.332031 291.039062 346.816406 C 291.316406 346.304688 291.621094 345.804688 291.945312 345.320312 C 292.273438 344.835938 292.621094 344.367188 292.996094 343.917969 C 293.367188 343.46875 293.761719 343.035156 294.175781 342.625 C 294.589844 342.214844 295.023438 341.824219 295.476562 341.453125 C 295.929688 341.082031 296.398438 340.738281 296.886719 340.414062 C 297.371094 340.089844 297.875 339.792969 298.390625 339.515625 C 298.90625 339.242188 299.433594 338.996094 299.972656 338.773438 C 300.515625 338.550781 301.0625 338.351562 301.625 338.183594 C 302.183594 338.015625 302.75 337.875 303.324219 337.761719 C 303.894531 337.648438 304.472656 337.5625 305.054688 337.503906 C 305.636719 337.449219 306.21875 337.417969 306.804688 337.417969 L 308.136719 337.417969 C 307.617188 337.429688 307.097656 337.46875 306.582031 337.53125 C 306.066406 337.59375 305.554688 337.679688 305.046875 337.792969 C 304.539062 337.90625 304.039062 338.042969 303.546875 338.207031 C 303.050781 338.367188 302.566406 338.554688 302.09375 338.765625 C 301.617188 338.972656 301.152344 339.207031 300.699219 339.460938 C 300.25 339.71875 299.808594 339.996094 299.382812 340.292969 C 298.957031 340.589844 298.550781 340.910156 298.15625 341.25 C 297.761719 341.585938 297.382812 341.945312 297.027344 342.320312 C 296.667969 342.695312 296.328125 343.089844 296.007812 343.496094 C 295.6875 343.90625 295.386719 344.332031 295.109375 344.769531 C 294.828125 345.207031 294.574219 345.660156 294.339844 346.121094 C 294.105469 346.585938 293.894531 347.0625 293.707031 347.546875 C 293.519531 348.03125 293.355469 348.523438 293.214844 349.023438 C 293.074219 349.523438 292.960938 350.03125 292.871094 350.542969 C 292.78125 351.054688 292.71875 351.566406 292.679688 352.085938 C 292.640625 352.605469 292.625 353.125 292.636719 353.644531 C 292.636719 354.242188 292.667969 354.839844 292.726562 355.433594 C 292.785156 356.03125 292.871094 356.621094 292.988281 357.210938 C 293.105469 357.796875 293.25 358.375 293.425781 358.949219 C 293.597656 359.523438 293.800781 360.085938 294.03125 360.640625 C 294.257812 361.191406 294.515625 361.734375 294.796875 362.261719 C 295.078125 362.789062 295.386719 363.300781 295.71875 363.800781 C 296.050781 364.296875 296.40625 364.777344 296.789062 365.242188 C 297.167969 365.703125 297.570312 366.144531 297.992188 366.570312 C 298.417969 366.992188 298.859375 367.394531 299.320312 367.773438 C 299.785156 368.15625 300.265625 368.511719 300.761719 368.84375 C 301.261719 369.175781 301.773438 369.484375 302.300781 369.765625 C 302.828125 370.046875 303.371094 370.304688 303.921875 370.53125 C 304.476562 370.761719 305.039062 370.964844 305.613281 371.136719 C 306.1875 371.3125 306.765625 371.457031 307.351562 371.574219 C 307.941406 371.691406 308.53125 371.777344 309.128906 371.835938 C 309.722656 371.894531 310.320312 371.925781 310.917969 371.925781 C 311.621094 371.929688 312.320312 371.898438 313.015625 371.832031 C 313.714844 371.769531 314.40625 371.667969 315.09375 371.535156 C 315.78125 371.402344 316.460938 371.234375 317.132812 371.035156 C 317.804688 370.835938 318.464844 370.601562 319.109375 370.335938 C 319.757812 370.070312 320.394531 369.773438 321.011719 369.449219 C 321.632812 369.121094 322.230469 368.761719 322.816406 368.375 C 323.398438 367.988281 323.964844 367.574219 324.507812 367.132812 C 325.046875 366.6875 325.570312 366.21875 326.066406 365.726562 C 326.5625 365.230469 327.03125 364.714844 327.480469 364.175781 C 327.925781 363.632812 328.34375 363.074219 328.734375 362.492188 C 329.125 361.910156 329.484375 361.3125 329.816406 360.695312 C 330.148438 360.078125 330.445312 359.445312 330.714844 358.796875 C 330.984375 358.152344 331.222656 357.492188 331.425781 356.824219 C 331.628906 356.152344 331.800781 355.476562 331.9375 354.789062 C 332.074219 354.101562 332.175781 353.410156 332.246094 352.710938 C 332.316406 352.015625 332.347656 351.316406 332.347656 350.617188 C 332.347656 349.792969 332.308594 348.96875 332.226562 348.148438 C 332.148438 347.328125 332.027344 346.511719 331.863281 345.703125 C 331.703125 344.894531 331.503906 344.09375 331.265625 343.304688 C 331.023438 342.515625 330.746094 341.742188 330.433594 340.980469 C 330.117188 340.21875 329.765625 339.472656 329.375 338.746094 C 328.988281 338.019531 328.5625 337.3125 328.105469 336.625 C 327.648438 335.941406 327.15625 335.277344 326.632812 334.640625 C 326.109375 334.003906 325.554688 333.394531 324.972656 332.808594 C 324.390625 332.226562 323.78125 331.671875 323.140625 331.148438 C 322.503906 330.625 321.84375 330.136719 321.15625 329.675781 C 320.472656 329.21875 319.765625 328.796875 319.039062 328.40625 C 318.308594 328.019531 317.566406 327.667969 316.804688 327.351562 C 316.042969 327.035156 315.265625 326.757812 314.476562 326.519531 C 313.6875 326.277344 312.886719 326.078125 312.078125 325.917969 C 311.269531 325.757812 310.457031 325.636719 309.636719 325.554688 C 308.8125 325.472656 307.992188 325.433594 307.167969 325.433594 C 306.1875 325.433594 305.207031 325.480469 304.230469 325.578125 C 303.253906 325.671875 302.285156 325.816406 301.324219 326.007812 C 300.363281 326.199219 299.410156 326.4375 298.472656 326.71875 C 297.535156 327.003906 296.609375 327.332031 295.703125 327.707031 C 294.796875 328.082031 293.910156 328.5 293.046875 328.960938 C 292.179688 329.421875 291.339844 329.925781 290.523438 330.46875 C 289.707031 331.011719 288.917969 331.59375 288.160156 332.214844 C 287.398438 332.835938 286.671875 333.492188 285.976562 334.183594 C 285.285156 334.878906 284.625 335.601562 284 336.359375 C 283.375 337.113281 282.789062 337.902344 282.242188 338.714844 C 281.695312 339.527344 281.191406 340.367188 280.726562 341.230469 C 280.261719 342.09375 279.839844 342.980469 279.460938 343.886719 C 279.082031 344.789062 278.75 345.710938 278.460938 346.648438 C 278.175781 347.585938 277.933594 348.535156 277.738281 349.496094 C 277.542969 350.457031 277.398438 351.425781 277.296875 352.402344 C 277.195312 353.378906 277.144531 354.355469 277.140625 355.335938 C 277.140625 356.527344 277.199219 357.714844 277.316406 358.898438 C 277.433594 360.082031 277.605469 361.257812 277.839844 362.421875 C 278.070312 363.589844 278.359375 364.742188 278.707031 365.882812 C 279.050781 367.019531 279.449219 368.136719 279.90625 369.238281 C 280.359375 370.335938 280.871094 371.410156 281.429688 372.460938 C 281.992188 373.507812 282.601562 374.527344 283.261719 375.515625 C 283.921875 376.503906 284.632812 377.460938 285.386719 378.378906 C 286.140625 379.300781 286.9375 380.179688 287.78125 381.019531 C 288.621094 381.863281 289.5 382.660156 290.421875 383.414062 C 291.339844 384.167969 292.292969 384.875 293.285156 385.539062 C 294.273438 386.199219 295.292969 386.808594 296.339844 387.371094 C 297.390625 387.929688 298.464844 388.4375 299.5625 388.894531 C 300.660156 389.347656 301.78125 389.75 302.917969 390.09375 C 304.058594 390.441406 305.210938 390.730469 306.375 390.960938 C 307.542969 391.191406 308.71875 391.367188 309.902344 391.484375 C 311.085938 391.601562 312.273438 391.660156 313.460938 391.660156 C 314.882812 391.660156 316.300781 391.589844 317.714844 391.449219 C 319.128906 391.3125 320.53125 391.101562 321.925781 390.828125 C 323.320312 390.550781 324.699219 390.207031 326.058594 389.792969 C 327.417969 389.382812 328.753906 388.90625 330.066406 388.363281 C 331.378906 387.820312 332.664062 387.214844 333.917969 386.542969 C 335.171875 385.875 336.390625 385.148438 337.570312 384.359375 C 338.753906 383.570312 339.894531 382.726562 340.996094 381.828125 C 342.09375 380.925781 343.148438 379.972656 344.152344 378.972656 C 345.160156 377.96875 346.113281 376.917969 347.015625 375.820312 C 347.921875 374.722656 348.769531 373.585938 349.558594 372.40625 C 350.351562 371.226562 351.082031 370.007812 351.753906 368.757812 C 352.425781 367.503906 353.035156 366.222656 353.582031 364.910156 C 354.128906 363.601562 354.609375 362.265625 355.027344 360.90625 C 355.441406 359.546875 355.789062 358.171875 356.070312 356.777344 C 356.351562 355.386719 356.5625 353.980469 356.707031 352.566406 C 356.847656 351.152344 356.921875 349.738281 356.925781 348.316406 C 356.925781 346.578125 356.839844 344.84375 356.671875 343.113281 C 356.5 341.386719 356.242188 339.667969 355.902344 337.964844 C 355.5625 336.261719 355.140625 334.578125 354.636719 332.914062 C 354.128906 331.25 353.542969 329.617188 352.875 328.011719 C 352.207031 326.40625 351.464844 324.839844 350.644531 323.308594 C 349.820312 321.777344 348.925781 320.289062 347.960938 318.847656 C 346.992188 317.402344 345.953125 316.011719 344.851562 314.667969 C 343.746094 313.328125 342.574219 312.042969 341.34375 310.820312 C 340.113281 309.59375 338.824219 308.429688 337.476562 307.332031 C 336.132812 306.230469 334.734375 305.203125 333.285156 304.242188 C 331.839844 303.277344 330.347656 302.390625 328.8125 301.578125 C 327.277344 300.761719 325.707031 300.027344 324.097656 299.367188 C 322.488281 298.707031 320.855469 298.128906 319.1875 297.628906 C 317.523438 297.132812 315.839844 296.714844 314.132812 296.382812 C 312.425781 296.050781 310.707031 295.804688 308.980469 295.640625 C 307.25 295.476562 305.515625 295.402344 303.777344 295.410156 Z M 320.242188 350.859375 C 320.234375 351.464844 320.167969 352.066406 320.042969 352.660156 C 319.917969 353.253906 319.734375 353.828125 319.496094 354.386719 C 319.261719 354.945312 318.96875 355.476562 318.628906 355.980469 C 318.289062 356.480469 317.902344 356.945312 317.46875 357.371094 C 317.039062 357.796875 316.566406 358.179688 316.0625 358.515625 C 315.554688 358.847656 315.019531 359.132812 314.460938 359.363281 C 313.898438 359.59375 313.320312 359.765625 312.722656 359.882812 C 312.128906 360 311.527344 360.058594 310.917969 360.058594 C 310.515625 360.058594 310.113281 360.019531 309.714844 359.941406 C 309.316406 359.863281 308.929688 359.746094 308.558594 359.589844 C 308.183594 359.433594 307.828125 359.246094 307.488281 359.019531 C 307.152344 358.792969 306.839844 358.539062 306.554688 358.25 C 306.265625 357.964844 306.011719 357.652344 305.785156 357.316406 C 305.5625 356.976562 305.371094 356.621094 305.214844 356.246094 C 305.058594 355.875 304.941406 355.488281 304.863281 355.089844 C 304.785156 354.691406 304.746094 354.289062 304.746094 353.886719 C 304.746094 353.386719 304.839844 352.910156 305.03125 352.449219 C 305.222656 351.988281 305.492188 351.582031 305.84375 351.230469 C 306.195312 350.878906 306.601562 350.609375 307.0625 350.417969 C 307.523438 350.226562 308 350.132812 308.5 350.132812 C 308.894531 350.132812 309.289062 350.09375 309.679688 350.015625 C 310.070312 349.9375 310.449219 349.824219 310.816406 349.671875 C 311.183594 349.519531 311.53125 349.332031 311.863281 349.113281 C 312.191406 348.890625 312.496094 348.640625 312.777344 348.359375 C 313.058594 348.078125 313.3125 347.773438 313.53125 347.441406 C 313.753906 347.109375 313.9375 346.761719 314.089844 346.394531 C 314.242188 346.027344 314.359375 345.648438 314.433594 345.257812 C 314.511719 344.871094 314.550781 344.476562 314.550781 344.078125 C 314.546875 343.488281 314.457031 342.914062 314.289062 342.347656 C 314.117188 341.785156 313.871094 341.257812 313.550781 340.761719 C 313.226562 340.269531 312.84375 339.832031 312.394531 339.449219 C 311.949219 339.066406 311.457031 338.75 310.917969 338.507812 C 311.585938 338.703125 312.230469 338.949219 312.855469 339.246094 C 313.480469 339.542969 314.078125 339.890625 314.648438 340.28125 C 315.21875 340.675781 315.75 341.113281 316.25 341.589844 C 316.75 342.070312 317.210938 342.585938 317.628906 343.140625 C 318.042969 343.691406 318.414062 344.273438 318.738281 344.886719 C 319.0625 345.496094 319.335938 346.132812 319.558594 346.789062 C 319.78125 347.445312 319.949219 348.113281 320.0625 348.796875 C 320.179688 349.476562 320.238281 350.164062 320.242188 350.859375 Z M 320.242188 350.859375 " fill-opacity="1" fill-rule="nonzero"/><g clip-path="url(#6673f98ac2)"><path fill="#a4e6f0" d="M 302.566406 214.65625 C 302.566406 213.234375 302.496094 211.8125 302.355469 210.398438 C 302.21875 208.984375 302.007812 207.578125 301.730469 206.183594 C 301.453125 204.789062 301.105469 203.414062 300.691406 202.050781 C 300.28125 200.691406 299.800781 199.355469 299.253906 198.039062 C 298.710938 196.726562 298.101562 195.445312 297.429688 194.191406 C 296.757812 192.9375 296.027344 191.71875 295.234375 190.539062 C 294.445312 189.355469 293.597656 188.214844 292.695312 187.117188 C 291.789062 186.019531 290.835938 184.96875 289.828125 183.964844 C 288.820312 182.960938 287.765625 182.007812 286.667969 181.105469 C 285.566406 180.207031 284.425781 179.363281 283.238281 178.574219 C 282.054688 177.785156 280.835938 177.058594 279.582031 176.390625 C 278.324219 175.722656 277.039062 175.117188 275.726562 174.578125 C 274.410156 174.035156 273.074219 173.558594 271.710938 173.148438 C 270.347656 172.738281 268.96875 172.398438 267.574219 172.125 C 266.179688 171.851562 264.773438 171.644531 263.359375 171.507812 C 261.941406 171.375 260.523438 171.308594 259.101562 171.3125 C 257.914062 171.3125 256.726562 171.371094 255.542969 171.488281 C 254.359375 171.605469 253.183594 171.777344 252.015625 172.011719 C 250.847656 172.242188 249.695312 172.53125 248.558594 172.875 C 247.421875 173.222656 246.300781 173.621094 245.203125 174.078125 C 244.105469 174.53125 243.03125 175.039062 241.980469 175.601562 C 240.929688 176.160156 239.914062 176.773438 238.921875 177.433594 C 237.933594 178.09375 236.980469 178.800781 236.058594 179.558594 C 235.140625 180.3125 234.261719 181.109375 233.417969 181.949219 C 232.578125 182.792969 231.78125 183.671875 231.027344 184.589844 C 230.269531 185.511719 229.5625 186.464844 228.902344 187.453125 C 228.242188 188.441406 227.628906 189.460938 227.070312 190.511719 C 226.507812 191.5625 226 192.632812 225.546875 193.734375 C 225.089844 194.832031 224.691406 195.953125 224.34375 197.089844 C 224 198.226562 223.710938 199.378906 223.480469 200.546875 C 223.246094 201.714844 223.074219 202.890625 222.957031 204.074219 C 222.839844 205.257812 222.78125 206.445312 222.78125 207.632812 C 222.78125 208.613281 222.828125 209.59375 222.925781 210.570312 C 223.019531 211.542969 223.164062 212.515625 223.355469 213.476562 C 223.546875 214.4375 223.785156 215.386719 224.066406 216.328125 C 224.351562 217.265625 224.679688 218.1875 225.054688 219.09375 C 225.429688 220 225.847656 220.886719 226.308594 221.753906 C 226.769531 222.621094 227.273438 223.460938 227.816406 224.277344 C 228.359375 225.09375 228.941406 225.878906 229.5625 226.640625 C 230.183594 227.398438 230.839844 228.125 231.53125 228.820312 C 232.226562 229.515625 232.949219 230.175781 233.707031 230.800781 C 234.460938 231.421875 235.25 232.007812 236.0625 232.554688 C 236.875 233.101562 237.714844 233.609375 238.578125 234.074219 C 239.441406 234.539062 240.328125 234.960938 241.230469 235.339844 C 242.136719 235.714844 243.058594 236.050781 243.996094 236.335938 C 244.933594 236.625 245.882812 236.867188 246.84375 237.0625 C 247.804688 237.253906 248.773438 237.402344 249.75 237.503906 C 250.726562 237.601562 251.703125 237.65625 252.683594 237.660156 C 253.511719 237.660156 254.332031 237.617188 255.152344 237.535156 C 255.972656 237.457031 256.789062 237.335938 257.597656 237.175781 C 258.40625 237.011719 259.207031 236.8125 259.996094 236.574219 C 260.785156 236.335938 261.558594 236.058594 262.320312 235.742188 C 263.085938 235.425781 263.828125 235.074219 264.554688 234.683594 C 265.285156 234.296875 265.988281 233.871094 266.675781 233.414062 C 267.363281 232.957031 268.023438 232.464844 268.660156 231.941406 C 269.296875 231.417969 269.910156 230.867188 270.492188 230.28125 C 271.074219 229.699219 271.628906 229.089844 272.152344 228.453125 C 272.675781 227.8125 273.164062 227.152344 273.625 226.464844 C 274.082031 225.78125 274.503906 225.074219 274.894531 224.347656 C 275.28125 223.621094 275.636719 222.875 275.949219 222.113281 C 276.265625 221.351562 276.542969 220.574219 276.785156 219.785156 C 277.023438 218.996094 277.222656 218.199219 277.382812 217.386719 C 277.542969 216.578125 277.664062 215.765625 277.746094 214.945312 C 277.828125 214.125 277.867188 213.300781 277.867188 212.476562 C 277.867188 211.777344 277.832031 211.082031 277.765625 210.386719 C 277.695312 209.691406 277.59375 209.003906 277.457031 208.320312 C 277.320312 207.632812 277.152344 206.957031 276.949219 206.289062 C 276.746094 205.621094 276.511719 204.964844 276.246094 204.320312 C 275.980469 203.675781 275.679688 203.046875 275.351562 202.429688 C 275.023438 201.816406 274.664062 201.21875 274.277344 200.636719 C 273.890625 200.058594 273.472656 199.496094 273.03125 198.957031 C 272.589844 198.417969 272.121094 197.902344 271.625 197.410156 C 271.132812 196.914062 270.617188 196.445312 270.078125 196.003906 C 269.539062 195.5625 268.976562 195.144531 268.398438 194.757812 C 267.816406 194.371094 267.21875 194.011719 266.605469 193.683594 C 265.988281 193.355469 265.359375 193.054688 264.714844 192.789062 C 264.070312 192.523438 263.414062 192.289062 262.746094 192.085938 C 262.078125 191.882812 261.402344 191.714844 260.714844 191.578125 C 260.03125 191.441406 259.34375 191.339844 258.648438 191.269531 C 257.953125 191.203125 257.257812 191.167969 256.558594 191.167969 C 255.960938 191.164062 255.359375 191.1875 254.765625 191.246094 C 254.167969 191.300781 253.574219 191.382812 252.984375 191.5 C 252.394531 191.613281 251.8125 191.753906 251.238281 191.925781 C 250.664062 192.097656 250.097656 192.296875 249.542969 192.527344 C 248.988281 192.753906 248.445312 193.007812 247.917969 193.289062 C 247.386719 193.570312 246.875 193.878906 246.375 194.210938 C 245.875 194.542969 245.394531 194.898438 244.929688 195.28125 C 244.464844 195.660156 244.019531 196.0625 243.597656 196.484375 C 243.171875 196.910156 242.769531 197.355469 242.390625 197.820312 C 242.011719 198.28125 241.652344 198.765625 241.320312 199.261719 C 240.988281 199.761719 240.683594 200.277344 240.402344 200.808594 C 240.121094 201.335938 239.863281 201.878906 239.636719 202.433594 C 239.410156 202.988281 239.210938 203.554688 239.039062 204.128906 C 238.867188 204.703125 238.722656 205.285156 238.609375 205.875 C 238.496094 206.464844 238.410156 207.054688 238.355469 207.652344 C 238.300781 208.25 238.273438 208.847656 238.277344 209.449219 C 238.277344 210.484375 238.378906 211.507812 238.582031 212.519531 C 238.78125 213.53125 239.082031 214.515625 239.476562 215.472656 C 239.871094 216.425781 240.355469 217.332031 240.929688 218.191406 C 241.503906 219.050781 242.15625 219.847656 242.886719 220.578125 C 243.617188 221.308594 244.414062 221.960938 245.273438 222.535156 C 246.132812 223.109375 247.039062 223.59375 247.992188 223.988281 C 248.949219 224.386719 249.933594 224.683594 250.945312 224.886719 C 251.960938 225.085938 252.984375 225.1875 254.015625 225.1875 C 253.453125 225.246094 252.886719 225.246094 252.320312 225.1875 C 251.738281 225.1875 251.152344 225.160156 250.570312 225.101562 C 249.988281 225.042969 249.410156 224.957031 248.835938 224.84375 C 248.261719 224.730469 247.695312 224.585938 247.132812 224.414062 C 246.574219 224.246094 246.023438 224.046875 245.484375 223.820312 C 244.941406 223.597656 244.414062 223.347656 243.898438 223.070312 C 243.382812 222.792969 242.882812 222.488281 242.398438 222.164062 C 241.910156 221.835938 241.441406 221.488281 240.992188 221.113281 C 240.539062 220.742188 240.105469 220.347656 239.695312 219.933594 C 239.28125 219.515625 238.890625 219.082031 238.519531 218.628906 C 238.152344 218.175781 237.804688 217.703125 237.480469 217.214844 C 237.160156 216.726562 236.859375 216.226562 236.585938 215.707031 C 236.3125 215.191406 236.066406 214.660156 235.84375 214.117188 C 235.625 213.574219 235.429688 213.023438 235.261719 212.464844 C 235.09375 211.902344 234.957031 211.332031 234.847656 210.757812 C 234.734375 210.183594 234.652344 209.605469 234.597656 209.023438 C 234.546875 208.4375 234.519531 207.855469 234.523438 207.269531 C 234.523438 206.476562 234.5625 205.6875 234.640625 204.894531 C 234.71875 204.105469 234.835938 203.324219 234.988281 202.546875 C 235.144531 201.769531 235.335938 201 235.566406 200.242188 C 235.796875 199.480469 236.066406 198.734375 236.367188 198.003906 C 236.671875 197.269531 237.011719 196.554688 237.382812 195.855469 C 237.757812 195.15625 238.164062 194.476562 238.605469 193.816406 C 239.046875 193.15625 239.519531 192.523438 240.019531 191.910156 C 240.523438 191.296875 241.054688 190.707031 241.617188 190.148438 C 242.179688 189.585938 242.765625 189.054688 243.378906 188.550781 C 243.992188 188.050781 244.625 187.578125 245.285156 187.136719 C 245.945312 186.695312 246.625 186.289062 247.324219 185.914062 C 248.023438 185.542969 248.738281 185.203125 249.472656 184.898438 C 250.207031 184.59375 250.949219 184.328125 251.710938 184.097656 C 252.46875 183.867188 253.238281 183.675781 254.015625 183.519531 C 254.792969 183.367188 255.578125 183.25 256.367188 183.171875 C 257.15625 183.09375 257.945312 183.054688 258.738281 183.054688 C 259.761719 183.054688 260.785156 183.105469 261.804688 183.207031 C 262.824219 183.304688 263.835938 183.457031 264.839844 183.65625 C 265.847656 183.855469 266.839844 184.101562 267.820312 184.398438 C 268.800781 184.695312 269.765625 185.039062 270.710938 185.429688 C 271.65625 185.824219 272.582031 186.257812 273.488281 186.742188 C 274.390625 187.222656 275.269531 187.746094 276.121094 188.316406 C 276.976562 188.882812 277.796875 189.492188 278.589844 190.140625 C 279.382812 190.789062 280.144531 191.472656 280.867188 192.199219 C 281.59375 192.921875 282.285156 193.675781 282.933594 194.46875 C 283.585938 195.257812 284.199219 196.078125 284.769531 196.929688 C 285.339844 197.78125 285.867188 198.65625 286.355469 199.558594 C 286.839844 200.460938 287.28125 201.382812 287.675781 202.328125 C 288.070312 203.273438 288.417969 204.238281 288.71875 205.214844 C 289.015625 206.195312 289.269531 207.1875 289.472656 208.191406 C 289.675781 209.195312 289.828125 210.207031 289.933594 211.226562 C 290.039062 212.246094 290.09375 213.265625 290.097656 214.292969 C 290.09375 215.621094 290.023438 216.949219 289.890625 218.269531 C 289.753906 219.59375 289.554688 220.90625 289.292969 222.210938 C 289.03125 223.515625 288.703125 224.800781 288.316406 226.074219 C 287.925781 227.34375 287.476562 228.59375 286.964844 229.820312 C 286.453125 231.050781 285.882812 232.25 285.253906 233.421875 C 284.625 234.589844 283.9375 235.730469 283.199219 236.832031 C 282.457031 237.9375 281.664062 239.003906 280.820312 240.03125 C 279.972656 241.054688 279.082031 242.039062 278.136719 242.976562 C 277.195312 243.917969 276.210938 244.808594 275.183594 245.648438 C 274.152344 246.492188 273.085938 247.28125 271.980469 248.019531 C 270.871094 248.757812 269.734375 249.4375 268.558594 250.066406 C 267.386719 250.691406 266.183594 251.257812 264.957031 251.765625 C 263.726562 252.273438 262.476562 252.71875 261.203125 253.105469 C 259.929688 253.492188 258.640625 253.8125 257.335938 254.070312 C 256.035156 254.332031 254.71875 254.523438 253.394531 254.65625 C 252.074219 254.785156 250.746094 254.851562 249.417969 254.851562 L 122.171875 254.851562 C 121.773438 254.851562 121.382812 254.890625 120.992188 254.964844 C 120.601562 255.042969 120.222656 255.160156 119.855469 255.3125 C 119.488281 255.464844 119.140625 255.648438 118.808594 255.871094 C 118.480469 256.089844 118.171875 256.34375 117.890625 256.625 C 117.609375 256.902344 117.359375 257.210938 117.140625 257.539062 C 116.917969 257.871094 116.730469 258.21875 116.578125 258.585938 C 116.425781 258.953125 116.3125 259.332031 116.234375 259.722656 C 116.15625 260.113281 116.117188 260.507812 116.117188 260.902344 C 116.117188 261.300781 116.15625 261.695312 116.234375 262.085938 C 116.3125 262.472656 116.425781 262.851562 116.578125 263.21875 C 116.730469 263.585938 116.917969 263.9375 117.140625 264.265625 C 117.359375 264.597656 117.609375 264.902344 117.890625 265.183594 C 118.171875 265.464844 118.480469 265.714844 118.808594 265.9375 C 119.140625 266.15625 119.488281 266.34375 119.855469 266.496094 C 120.222656 266.648438 120.601562 266.761719 120.992188 266.839844 C 121.382812 266.917969 121.773438 266.957031 122.171875 266.957031 L 249.78125 266.957031 C 251.5 266.957031 253.214844 266.875 254.921875 266.707031 C 256.632812 266.539062 258.332031 266.289062 260.019531 265.953125 C 261.703125 265.621094 263.371094 265.207031 265.015625 264.710938 C 266.660156 264.214844 268.28125 263.640625 269.867188 262.984375 C 271.457031 262.332031 273.011719 261.601562 274.53125 260.796875 C 276.046875 259.988281 277.523438 259.113281 278.957031 258.164062 C 280.386719 257.210938 281.769531 256.195312 283.105469 255.109375 C 284.4375 254.023438 285.714844 252.878906 286.933594 251.667969 C 288.15625 250.457031 289.316406 249.191406 290.414062 247.867188 C 291.507812 246.546875 292.539062 245.171875 293.503906 243.75 C 294.464844 242.324219 295.355469 240.859375 296.175781 239.347656 C 296.996094 237.835938 297.742188 236.289062 298.410156 234.707031 C 299.078125 233.125 299.667969 231.511719 300.179688 229.871094 C 300.691406 228.230469 301.121094 226.566406 301.46875 224.882812 C 301.816406 223.203125 302.085938 221.503906 302.265625 219.796875 C 302.449219 218.085938 302.550781 216.375 302.566406 214.65625 Z M 254.136719 212.597656 C 253.898438 212.605469 253.660156 212.589844 253.421875 212.546875 C 253.183594 212.507812 252.953125 212.441406 252.726562 212.355469 C 252.503906 212.265625 252.292969 212.15625 252.089844 212.023438 C 251.886719 211.890625 251.703125 211.742188 251.53125 211.570312 C 251.363281 211.398438 251.210938 211.214844 251.078125 211.011719 C 250.945312 210.8125 250.835938 210.597656 250.75 210.375 C 250.660156 210.148438 250.59375 209.917969 250.554688 209.683594 C 250.515625 209.445312 250.496094 209.207031 250.507812 208.964844 C 250.507812 208.558594 250.546875 208.15625 250.625 207.761719 C 250.703125 207.363281 250.820312 206.976562 250.976562 206.601562 C 251.132812 206.226562 251.320312 205.871094 251.546875 205.535156 C 251.773438 205.199219 252.027344 204.886719 252.316406 204.597656 C 252.601562 204.3125 252.914062 204.054688 253.25 203.832031 C 253.585938 203.605469 253.941406 203.414062 254.316406 203.261719 C 254.691406 203.105469 255.078125 202.988281 255.476562 202.910156 C 255.875 202.828125 256.273438 202.789062 256.679688 202.789062 C 257.285156 202.789062 257.882812 202.847656 258.476562 202.96875 C 259.066406 203.085938 259.644531 203.257812 260.203125 203.492188 C 260.761719 203.722656 261.289062 204.003906 261.792969 204.339844 C 262.292969 204.675781 262.757812 205.058594 263.1875 205.484375 C 263.613281 205.914062 263.996094 206.378906 264.332031 206.878906 C 264.667969 207.382812 264.949219 207.914062 265.179688 208.46875 C 265.414062 209.027344 265.585938 209.605469 265.703125 210.195312 C 265.824219 210.789062 265.882812 211.386719 265.882812 211.992188 C 265.871094 212.675781 265.800781 213.351562 265.679688 214.027344 C 265.558594 214.699219 265.386719 215.355469 265.160156 216 C 264.933594 216.648438 264.660156 217.269531 264.332031 217.871094 C 264.007812 218.472656 263.636719 219.042969 263.21875 219.582031 C 262.800781 220.125 262.34375 220.628906 261.847656 221.097656 C 261.347656 221.566406 260.816406 221.992188 260.253906 222.375 C 259.6875 222.761719 259.09375 223.097656 258.476562 223.386719 C 257.855469 223.671875 257.21875 223.910156 256.558594 224.097656 C 257.109375 223.875 257.617188 223.574219 258.074219 223.199219 C 258.535156 222.820312 258.925781 222.382812 259.25 221.882812 C 259.574219 221.386719 259.816406 220.851562 259.980469 220.277344 C 260.140625 219.707031 260.210938 219.125 260.191406 218.53125 C 260.183594 218.152344 260.144531 217.777344 260.066406 217.410156 C 259.988281 217.039062 259.878906 216.679688 259.734375 216.332031 C 259.589844 215.980469 259.414062 215.648438 259.210938 215.332031 C 259.003906 215.015625 258.769531 214.722656 258.507812 214.449219 C 258.246094 214.175781 257.960938 213.929688 257.65625 213.710938 C 257.347656 213.492188 257.023438 213.304688 256.679688 213.144531 C 256.335938 212.988281 255.980469 212.859375 255.617188 212.769531 C 255.25 212.675781 254.878906 212.621094 254.5 212.597656 Z M 254.136719 212.597656 " fill-opacity="1" fill-rule="nonzero"/></g></svg>