<svg xmlns="http://www.w3.org/2000/svg" xmlns:xlink="http://www.w3.org/1999/xlink" width="720" zoomAndPan="magnify" viewBox="0 0 540 540.000001" height="720" preserveAspectRatio="xMidYMid meet" version="1.0"><defs><clipPath id="a02540e3b2"><path d="M 36.339844 57 L 462 57 L 462 527.679688 L 36.339844 527.679688 Z M 36.339844 57 " clip-rule="nonzero"/></clipPath><clipPath id="6701ce7e40"><path d="M 59 356 L 337 356 L 337 470.679688 L 59 470.679688 Z M 59 356 " clip-rule="nonzero"/></clipPath><clipPath id="cbdfe3bd3f"><path d="M 0.339844 0.015625 L 425 0.015625 L 425 404 L 0.339844 404 Z M 0.339844 0.015625 " clip-rule="nonzero"/></clipPath><clipPath id="4e5a95bd92"><rect x="0" width="426" y="0" height="471"/></clipPath></defs><g clip-path="url(#a02540e3b2)"><g transform="matrix(1, 0, 0, 1, 36, 57)"><g clip-path="url(#4e5a95bd92)"><g clip-path="url(#6701ce7e40)"><path fill="#58beff" d="M 336.957031 356.976562 C 274.472656 427.828125 189.429688 411.210938 186.132812 390.09375 C 182.832031 368.96875 161.710938 368.636719 161.710938 368.636719 C 161.710938 368.636719 180.523438 376.890625 169.628906 383.160156 C 158.738281 389.433594 149.832031 370.621094 149.832031 370.621094 C 150.15625 388.109375 175.902344 392.183594 174.578125 403.621094 C 173.261719 415.0625 154.78125 410.222656 149.5 391.300781 C 144.214844 372.378906 121.777344 373.261719 121.777344 373.261719 C 139.816406 386.902344 139.816406 400.105469 139.816406 400.105469 C 139.816406 400.105469 123.09375 404.945312 94.933594 397.460938 C 66.769531 389.980469 59.730469 403.621094 59.730469 403.621094 C 59.730469 403.621094 79.96875 387.339844 98.894531 413.742188 C 117.816406 440.140625 138.9375 433.105469 138.9375 433.105469 C 123.980469 449.828125 131.898438 470.507812 131.898438 470.507812 C 131.898438 470.507812 127.496094 428.707031 212.660156 424.304688 C 297.828125 419.902344 336.957031 356.976562 336.957031 356.976562 " fill-opacity="1" fill-rule="nonzero"/></g><g clip-path="url(#cbdfe3bd3f)"><path fill="#58beff" d="M 171.375 76.988281 C 162.230469 75.171875 152.933594 74.230469 143.632812 73.601562 C 134.324219 73.074219 124.976562 73.128906 115.683594 73.8125 C 106.390625 74.464844 97.113281 75.792969 88.109375 78.210938 C 97.398438 77.816406 106.617188 77.867188 115.808594 77.914062 C 125 78.078125 134.179688 78.246094 143.328125 78.871094 C 152.488281 79.398438 161.644531 80.097656 170.785156 81.066406 L 198.34375 84.152344 C 189.546875 81.140625 180.550781 78.585938 171.375 76.988281 Z M 66.332031 93.394531 C 73.25 93.738281 80.136719 94.097656 87 94.820312 C 93.867188 95.367188 100.703125 96.132812 107.523438 97.019531 C 121.148438 98.875 134.6875 101.144531 148.0625 104.15625 C 161.492188 106.957031 174.667969 110.777344 187.710938 115.035156 L 197.46875 118.347656 L 207.027344 122.199219 C 213.582031 124.421875 219.589844 127.800781 226.066406 130.355469 C 214.417969 122.898438 202.125 116.183594 189.105469 111.222656 C 176.199219 105.996094 162.804688 101.964844 149.195312 99 C 135.59375 96.074219 121.808594 93.90625 107.929688 92.996094 C 94.066406 92.050781 80.125 91.871094 66.332031 93.394531 Z M 103.296875 113 C 83.09375 107.6875 61.910156 104.976562 41.25 107.914062 C 51.628906 107.453125 61.964844 108.300781 72.140625 109.894531 C 77.230469 110.753906 82.316406 111.507812 87.308594 112.824219 L 94.808594 114.609375 L 102.179688 116.886719 C 121.800781 122.996094 140.542969 131.695312 157.976562 142.535156 C 166.523438 148.21875 175.273438 153.636719 183.132812 160.304688 C 187.089844 163.59375 191.425781 166.433594 195.042969 170.109375 C 198.785156 173.644531 202.589844 177.117188 206.429688 180.5625 C 210.382812 183.894531 213.777344 187.785156 217.324219 191.535156 L 227.933594 202.84375 C 234.714844 210.640625 241.039062 218.84375 247.847656 226.726562 C 242.019531 218.152344 236.066406 209.597656 229.921875 201.1875 L 219.785156 189.285156 C 216.378906 185.332031 213.121094 181.234375 209.292969 177.679688 C 201.929688 170.261719 194.460938 162.917969 186.136719 156.550781 C 178.238281 149.652344 169.417969 143.96875 160.757812 138.054688 C 142.742188 127.363281 123.578125 118.394531 103.296875 113 Z M 335.640625 35.175781 C 467.644531 115.835938 451.804688 344.214844 298.671875 403.621094 C 298.671875 403.621094 400.320312 334.3125 390.417969 214.183594 C 380.519531 94.054688 277.550781 68.3125 224.082031 83.492188 C 224.082031 83.492188 247.1875 140.585938 301.972656 162.039062 C 301.972656 162.039062 252.796875 159.730469 238.933594 140.257812 C 238.933594 140.257812 274.472656 284.367188 366.878906 278.210938 C 366.878906 278.210938 303.070312 323.535156 232.230469 246.96875 C 161.378906 170.402344 148.617188 183.164062 148.617188 183.164062 C 148.617188 183.164062 141.800781 196.144531 130.355469 203.402344 L 138.054688 206.265625 C 138.054688 206.265625 120.015625 210.667969 111.875 209.5625 C 111.875 209.5625 121.335938 214.84375 124.640625 217.042969 C 124.640625 217.042969 100.652344 213.523438 94.933594 213.523438 C 89.214844 213.523438 72.273438 228.265625 74.472656 246.308594 C 76.671875 264.347656 65.234375 278.210938 65.234375 278.210938 L 75.792969 275.570312 C 75.792969 275.570312 65.011719 286.351562 64.347656 294.050781 C 63.6875 301.75 67.871094 316.492188 71.613281 311.429688 C 75.351562 306.375 83.269531 312.53125 83.269531 312.53125 C 83.269531 312.53125 76.558594 308.90625 72.492188 316.382812 C 68.417969 323.863281 66.109375 333.65625 56.925781 329.363281 C 56.925781 329.363281 48.34375 326.558594 43.558594 318.144531 C 43.558594 318.144531 48.507812 320.785156 48.507812 316.992188 C 48.507812 313.191406 34.480469 303.621094 32.171875 293.0625 L 36.296875 294.378906 C 36.296875 294.378906 32.503906 291.078125 20.457031 257.914062 C 8.410156 224.746094 0.324219 223.261719 0.324219 223.261719 C 0.324219 223.261719 15.011719 222.765625 30.355469 254.285156 C 30.355469 254.285156 23.753906 230.851562 11.21875 217.152344 C 11.21875 217.152344 22.601562 224.414062 31.183594 240.257812 L 29.367188 217.152344 L 35.640625 232.007812 C 35.640625 232.007812 36.792969 206.59375 28.625 181.84375 C 28.625 181.84375 33.324219 189.101562 35.964844 194.054688 C 35.964844 194.054688 38.28125 161.378906 35.640625 148.839844 C 35.640625 148.839844 42.566406 174.582031 43.558594 182.171875 C 43.558594 182.171875 45.539062 153.128906 54.453125 136.957031 C 54.453125 136.957031 85.144531 140.585938 119.132812 159.730469 C 119.132812 159.730469 74.6875 121.117188 9.128906 133.4375 C 9.128906 133.4375 1.203125 87.671875 55.769531 59.949219 C 110.335938 32.226562 177.21875 30.027344 211.546875 76.890625 C 211.546875 76.890625 198.191406 53.566406 167.578125 41.804688 C 285.105469 11.6875 344.136719 67.597656 361.230469 88.179688 C 289.605469 -4.066406 177.195312 29.058594 153.191406 37.523438 C 137.332031 34.113281 117.957031 33.972656 94.710938 40.175781 C 94.710938 40.175781 203.621094 -45.480469 335.640625 35.175781 " fill-opacity="1" fill-rule="nonzero"/></g></g></g></g></svg>