<svg xmlns="http://www.w3.org/2000/svg" xmlns:xlink="http://www.w3.org/1999/xlink" width="720" zoomAndPan="magnify" viewBox="0 0 540 540.000001" height="720" preserveAspectRatio="xMidYMid meet" version="1.0"><defs><clipPath id="82bf19d6dc"><path d="M 153 100.910156 L 391 100.910156 L 391 437.785156 L 153 437.785156 Z M 153 100.910156 " clip-rule="nonzero"/></clipPath></defs><g clip-path="url(#82bf19d6dc)"><path fill="#ff3300" d="M 305.242188 100.910156 C 305.242188 100.910156 292.699219 155.433594 324.054688 204.15625 C 355.40625 252.878906 462.507812 348.882812 311.027344 438.148438 C 311.027344 438.148438 343.101562 392.558594 326.953125 361.441406 C 310.792969 330.324219 276.050781 307.167969 281.835938 258.445312 C 281.835938 258.445312 236.015625 277.507812 256.269531 363.855469 C 256.269531 363.855469 230.449219 354.449219 219.601562 329 C 219.601562 329 203.554688 378.929688 232.980469 437.308594 C 232.980469 437.308594 77.390625 363.117188 202.832031 219.011719 C 202.832031 219.011719 205.484375 266.058594 224.058594 279.085938 C 224.058594 279.085938 193.410156 151.730469 305.226562 100.945312 Z M 305.242188 100.910156 " fill-opacity="1" fill-rule="evenodd"/></g></svg>