<svg xmlns="http://www.w3.org/2000/svg" xmlns:xlink="http://www.w3.org/1999/xlink" width="720" zoomAndPan="magnify" viewBox="0 0 540 540.000001" height="720" preserveAspectRatio="xMidYMid meet" version="1.0"><defs><clipPath id="9702c0ca90"><path d="M 84 0 L 462 0 L 462 539 L 84 539 Z M 84 0 " clip-rule="nonzero"/></clipPath></defs><g clip-path="url(#9702c0ca90)"><path fill="#ff3300" d="M 326.339844 0 C 326.339844 0 306.289062 87.164062 356.410156 165.050781 C 406.53125 242.941406 577.746094 396.410156 335.585938 539.109375 C 335.585938 539.109375 386.859375 466.234375 361.046875 416.488281 C 335.210938 366.742188 279.675781 329.726562 288.921875 251.839844 C 288.921875 251.839844 215.667969 282.3125 248.046875 420.347656 C 248.046875 420.347656 206.769531 405.308594 189.429688 364.625 C 189.429688 364.625 163.78125 444.441406 210.820312 537.769531 C 210.820312 537.769531 -37.910156 419.167969 162.628906 188.796875 C 162.628906 188.796875 166.863281 264.007812 196.558594 284.832031 C 196.558594 284.832031 147.5625 81.238281 326.3125 0.0546875 Z M 326.339844 0 " fill-opacity="1" fill-rule="evenodd"/></g></svg>