<svg xmlns="http://www.w3.org/2000/svg" xmlns:xlink="http://www.w3.org/1999/xlink" width="720" zoomAndPan="magnify" viewBox="0 0 540 540.000001" height="720" preserveAspectRatio="xMidYMid meet" version="1.0"><defs><clipPath id="963fd1d05c"><path d="M 106.1875 71.742188 L 383.921875 71.742188 L 383.921875 330.761719 L 106.1875 330.761719 Z M 106.1875 71.742188 " clip-rule="nonzero"/></clipPath><clipPath id="e7973c0f1c"><path d="M 245.234375 330.527344 L 384.285156 71.742188 L 106.1875 71.742188 Z M 245.234375 330.527344 " clip-rule="nonzero"/></clipPath><clipPath id="c154cf349b"><path d="M 48.679688 179.71875 L 326.414062 179.71875 L 326.414062 438.738281 L 48.679688 438.738281 Z M 48.679688 179.71875 " clip-rule="nonzero"/></clipPath><clipPath id="0d6bc10439"><path d="M 187.730469 438.503906 L 326.777344 179.71875 L 48.679688 179.71875 Z M 187.730469 438.503906 " clip-rule="nonzero"/></clipPath><clipPath id="19984469ec"><path d="M 213.222656 115.816406 L 490.957031 115.816406 L 490.957031 374.835938 L 213.222656 374.835938 Z M 213.222656 115.816406 " clip-rule="nonzero"/></clipPath><clipPath id="4e71f77e15"><path d="M 352.269531 115.816406 L 491.320312 374.605469 L 213.222656 374.605469 Z M 352.269531 115.816406 " clip-rule="nonzero"/></clipPath><clipPath id="24427b3ed7"><path d="M 163.417969 208.472656 L 441.152344 208.472656 L 441.152344 467.492188 L 163.417969 467.492188 Z M 163.417969 208.472656 " clip-rule="nonzero"/></clipPath><clipPath id="f0ae871c66"><path d="M 302.46875 208.472656 L 441.515625 467.261719 L 163.417969 467.261719 Z M 302.46875 208.472656 " clip-rule="nonzero"/></clipPath><clipPath id="394c2f0e01"><path d="M 0.5 0 L 539.5 0 L 539.5 539 L 0.5 539 Z M 0.5 0 " clip-rule="nonzero"/></clipPath><clipPath id="1c7dde3bcf"><path d="M 270 0 C 121.160156 0 0.5 120.660156 0.5 269.5 C 0.5 418.34375 121.160156 539 270 539 C 418.839844 539 539.5 418.34375 539.5 269.5 C 539.5 120.660156 418.839844 0 270 0 Z M 270 0 " clip-rule="nonzero"/></clipPath></defs><g clip-path="url(#963fd1d05c)"><g clip-path="url(#e7973c0f1c)"><path stroke-linecap="butt" transform="matrix(0.748614, 0, 0, 0.748614, 106.186975, 71.741808)" fill="none" stroke-linejoin="miter" d="M 185.739879 345.686394 L 371.484276 0.000507553 L 0.000701112 0.000507553 Z M 185.739879 345.686394 " stroke="#000000" stroke-width="14" stroke-opacity="1" stroke-miterlimit="4"/></g></g><g clip-path="url(#c154cf349b)"><g clip-path="url(#0d6bc10439)"><path stroke-linecap="butt" transform="matrix(0.748614, 0, 0, 0.748614, 48.679452, 179.717813)" fill="none" stroke-linejoin="miter" d="M 185.744711 345.687138 L 371.483889 0.00125129 L 0.000314522 0.00125129 Z M 185.744711 345.687138 " stroke="#000000" stroke-width="14" stroke-opacity="1" stroke-miterlimit="4"/></g></g><g clip-path="url(#19984469ec)"><g clip-path="url(#4e71f77e15)"><path stroke-linecap="butt" transform="matrix(0.748614, 0, 0, 0.748614, 213.221431, 115.817717)" fill="none" stroke-linejoin="miter" d="M 185.740815 -0.00175027 L 371.485211 345.689354 L 0.00163681 345.689354 Z M 185.740815 -0.00175027 " stroke="#000000" stroke-width="14" stroke-opacity="1" stroke-miterlimit="4"/></g></g><g clip-path="url(#24427b3ed7)"><g clip-path="url(#f0ae871c66)"><path stroke-linecap="butt" transform="matrix(0.748614, 0, 0, 0.748614, 163.418517, 208.473875)" fill="none" stroke-linejoin="miter" d="M 185.743663 -0.00162741 L 371.482842 345.684259 L -0.000732778 345.684259 Z M 185.743663 -0.00162741 " stroke="#000000" stroke-width="14" stroke-opacity="1" stroke-miterlimit="4"/></g></g><g clip-path="url(#394c2f0e01)"><g clip-path="url(#1c7dde3bcf)"><path stroke-linecap="butt" transform="matrix(0.748614, 0, 0, 0.748614, 0.499075, 0.000019963)" fill="none" stroke-linejoin="miter" d="M 360.000015 -0.0000266667 C 161.179376 -0.0000266667 0.00123523 161.178114 0.00123523 359.998753 C 0.00123523 558.82461 161.179376 719.997533 360.000015 719.997533 C 558.820654 719.997533 719.998795 558.82461 719.998795 359.998753 C 719.998795 161.178114 558.820654 -0.0000266667 360.000015 -0.0000266667 Z M 360.000015 -0.0000266667 " stroke="#000000" stroke-width="14" stroke-opacity="1" stroke-miterlimit="4"/></g></g></svg>