<svg xmlns="http://www.w3.org/2000/svg" xmlns:xlink="http://www.w3.org/1999/xlink" width="720" zoomAndPan="magnify" viewBox="0 0 540 540.000001" height="720" preserveAspectRatio="xMidYMid meet" version="1.0"><defs><clipPath id="90a5f8b4f3"><path d="M 164.632812 142.296875 L 343.503906 142.296875 L 343.503906 308.488281 L 164.632812 308.488281 Z M 164.632812 142.296875 " clip-rule="nonzero"/></clipPath><clipPath id="cd4324dfd7"><path d="M 254.066406 308.746094 L 343.503906 142.296875 L 164.632812 142.296875 Z M 254.066406 308.746094 " clip-rule="nonzero"/></clipPath><clipPath id="a99f491b87"><path d="M 127.640625 211.75 L 306.511719 211.75 L 306.511719 377.941406 L 127.640625 377.941406 Z M 127.640625 211.75 " clip-rule="nonzero"/></clipPath><clipPath id="fd9c053b97"><path d="M 217.078125 378.199219 L 306.511719 211.75 L 127.640625 211.75 Z M 217.078125 378.199219 " clip-rule="nonzero"/></clipPath><clipPath id="4a29a5ab91"><path d="M 233.480469 170.648438 L 412.351562 170.648438 L 412.351562 336.839844 L 233.480469 336.839844 Z M 233.480469 170.648438 " clip-rule="nonzero"/></clipPath><clipPath id="c674f6f833"><path d="M 322.914062 170.648438 L 412.351562 337.097656 L 233.480469 337.097656 Z M 322.914062 170.648438 " clip-rule="nonzero"/></clipPath><clipPath id="ece1ab1f80"><path d="M 201.445312 230.246094 L 380.316406 230.246094 L 380.316406 396.4375 L 201.445312 396.4375 Z M 201.445312 230.246094 " clip-rule="nonzero"/></clipPath><clipPath id="7a54f2e114"><path d="M 290.878906 230.246094 L 380.316406 396.695312 L 201.445312 396.695312 Z M 290.878906 230.246094 " clip-rule="nonzero"/></clipPath><clipPath id="6394aa9f9a"><path d="M 96.652344 96.152344 L 443.257812 96.152344 L 443.257812 442.761719 L 96.652344 442.761719 Z M 96.652344 96.152344 " clip-rule="nonzero"/></clipPath><clipPath id="52bd376b60"><path d="M 269.996094 96.152344 C 174.261719 96.152344 96.652344 173.761719 96.652344 269.496094 C 96.652344 365.234375 174.261719 442.84375 269.996094 442.84375 C 365.730469 442.84375 443.339844 365.234375 443.339844 269.496094 C 443.339844 173.761719 365.730469 96.152344 269.996094 96.152344 Z M 269.996094 96.152344 " clip-rule="nonzero"/></clipPath></defs><g clip-path="url(#90a5f8b4f3)"><g clip-path="url(#cd4324dfd7)"><path stroke-linecap="butt" transform="matrix(0.748614, 0, 0, 0.748614, 164.632369, 142.297906)" fill="none" stroke-linejoin="miter" d="M 119.466213 222.341909 L 238.937051 -0.00137732 L 0.000592968 -0.00137732 Z M 119.466213 222.341909 " stroke="#000000" stroke-width="14" stroke-opacity="1" stroke-miterlimit="4"/></g></g><g clip-path="url(#a99f491b87)"><g clip-path="url(#fd9c053b97)"><path stroke-linecap="butt" transform="matrix(0.748614, 0, 0, 0.748614, 127.642317, 211.750421)" fill="none" stroke-linejoin="miter" d="M 119.468578 222.342724 L 238.934199 -0.000562565 L -0.0022596 -0.000562565 Z M 119.468578 222.342724 " stroke="#000000" stroke-width="14" stroke-opacity="1" stroke-miterlimit="4"/></g></g><g clip-path="url(#4a29a5ab91)"><g clip-path="url(#c674f6f833)"><path stroke-linecap="butt" transform="matrix(0.748614, 0, 0, 0.748614, 233.47918, 170.648489)" fill="none" stroke-linejoin="miter" d="M 119.467342 -0.0000694241 L 238.93818 222.343217 L 0.00172184 222.343217 Z M 119.467342 -0.0000694241 " stroke="#000000" stroke-width="14" stroke-opacity="1" stroke-miterlimit="4"/></g></g><g clip-path="url(#ece1ab1f80)"><g clip-path="url(#7a54f2e114)"><path stroke-linecap="butt" transform="matrix(0.748614, 0, 0, 0.748614, 201.44489, 230.246851)" fill="none" stroke-linejoin="miter" d="M 119.466184 -0.00101148 L 238.937022 222.342275 L 0.000564121 222.342275 Z M 119.466184 -0.00101148 " stroke="#000000" stroke-width="14" stroke-opacity="1" stroke-miterlimit="4"/></g></g><g clip-path="url(#6394aa9f9a)"><g clip-path="url(#52bd376b60)"><path stroke-linecap="butt" transform="matrix(0.748614, 0, 0, 0.748614, 96.651333, 96.152307)" fill="none" stroke-linejoin="miter" d="M 231.554383 0.0000494416 C 103.672155 0.0000494416 0.00134974 103.670855 0.00134974 231.553083 C 0.00134974 359.440529 103.672155 463.111334 231.554383 463.111334 C 359.436611 463.111334 463.107416 359.440529 463.107416 231.553083 C 463.107416 103.670855 359.436611 0.0000494416 231.554383 0.0000494416 Z M 231.554383 0.0000494416 " stroke="#000000" stroke-width="14" stroke-opacity="1" stroke-miterlimit="4"/></g></g></svg>